<svg class="main-svg" xmlns="http://www.w3.org/2000/svg" xmlns:xlink="http://www.w3.org/1999/xlink" width="1000" height="500" style="" viewBox="0 0 1000 500"><rect x="0" y="0" width="1000" height="500" style="fill: rgb(255, 255, 255); fill-opacity: 1;"/><defs id="defs-47b4a2"><g class="clips"><clipPath id="clip47b4a2xyplot" class="plotclip"><rect width="896" height="300"/></clipPath><clipPath class="axesclip" id="clip47b4a2x"><rect x="54" y="0" width="896" height="500"/></clipPath><clipPath class="axesclip" id="clip47b4a2y"><rect x="0" y="100" width="1000" height="300"/></clipPath><clipPath class="axesclip" id="clip47b4a2xy"><rect x="54" y="100" width="896" height="300"/></clipPath></g><g class="gradients"/><g class="patterns"/></defs><g class="bglayer"/><g class="layer-below"><g class="imagelayer"/><g class="shapelayer"/></g><g class="cartesianlayer"><g class="subplot xy"><g class="layer-subplot"><g class="shapelayer"/><g class="imagelayer"/></g><g class="minor-gridlayer"><g class="x"/><g class="y"/></g><g class="gridlayer"><g class="x"/><g class="y"><path class="ygrid crisp" transform="translate(0,335.99)" d="M54,0h896" style="stroke: rgb(0, 0, 0); stroke-opacity: 0.05; stroke-width: 1px;"/><path class="ygrid crisp" transform="translate(0,271.99)" d="M54,0h896" style="stroke: rgb(0, 0, 0); stroke-opacity: 0.05; stroke-width: 1px;"/><path class="ygrid crisp" transform="translate(0,207.98000000000002)" d="M54,0h896" style="stroke: rgb(0, 0, 0); stroke-opacity: 0.05; stroke-width: 1px;"/><path class="ygrid crisp" transform="translate(0,143.98)" d="M54,0h896" style="stroke: rgb(0, 0, 0); stroke-opacity: 0.05; stroke-width: 1px;"/></g></g><g class="zerolinelayer"><path class="yzl zl crisp" transform="translate(0,400)" d="M54,0h896" style="stroke: rgb(255, 255, 255); stroke-opacity: 1; stroke-width: 2px;"/></g><g class="layer-between"><g class="shapelayer"/><g class="imagelayer"/></g><path class="xlines-below"/><path class="ylines-below"/><g class="overlines-below"/><g class="xaxislayer-below"/><g class="yaxislayer-below"/><g class="overaxes-below"/><g class="overplot"><g class="xy" transform="translate(54,100)" clip-path="url(#clip47b4a2xyplot)"><g class="scatterlayer mlayer"><g class="trace scatter trace41080f" style="stroke-miterlimit: 2;"><g class="fills"><g><path class="js-fill" d="M896,300L0,300L0,193.73L0.61,151.64L1.23,155.15L1.84,171.78L3.07,167.94L3.68,157.54L4.3,172.88L4.91,156.22L6.14,192.32L6.75,184.08L7.36,184.01L7.98,168.87L8.59,190.1L9.21,177.47L9.82,181.86L10.43,196.02L11.66,182.86L12.27,168.21L12.89,190.72L13.5,180.72L14.12,188.96L14.73,209.34L16.57,170.21L17.18,197.22L17.8,171.3L18.41,189.38L19.02,193.12L19.64,184.24L20.87,166.75L21.48,176.72L22.09,178.7L22.71,173.68L23.32,185.09L23.93,174.29L25.16,143.76L25.78,156.2L26.39,157.7L27,168.99L28.23,182.98L28.84,175.48L29.46,168.34L30.07,171.19L30.68,168.29L31.3,175.77L31.91,179.06L32.53,165.02L33.14,167.19L33.75,147.47L34.37,155.78L34.98,145.69L36.21,162.3L36.82,163.31L37.44,157.31L38.05,142.24L38.66,155.32L39.28,145.13L40.5,163.73L41.12,160.26L42.35,149.45L42.96,165.18L43.57,151.72L44.19,152.31L44.8,164.42L45.41,163.68L46.03,151.48L46.64,133.6L47.25,157.41L47.87,141.45L48.48,147.8L49.1,158.43L49.71,145.68L50.94,128.3L51.55,145.35L52.16,128.72L52.78,131.38L53.39,145.51L54.01,148.94L54.62,144.35L55.23,133.71L55.85,148.38L56.46,131.81L57.07,140.39L57.69,148.13L58.3,142.33L58.92,141.19L59.53,124.85L60.14,138.44L60.76,122.56L61.98,128.64L62.6,120.28L63.21,112.78L63.82,114.08L64.44,123.37L65.05,126.78L65.67,111.18L66.28,124.18L66.89,121.22L67.51,116.6L68.12,115.02L68.73,134.47L69.96,123.64L70.58,124.15L72.42,94.19L73.03,300L73.64,112.87L74.26,113.04L74.87,120.74L75.48,117.19L76.1,103.49L76.71,96.57L77.33,113.63L77.94,96.61L78.55,103.57L79.17,109.88L79.78,109.26L80.39,97.43L81.01,96.49L81.62,97.5L82.24,96.81L82.85,111.61L83.46,113.62L84.08,97.73L84.69,96.36L85.3,100.6L85.92,106.7L86.53,90.61L87.76,112.83L88.37,99.22L88.99,99.16L89.6,94.37L90.21,103.66L90.83,95.9L91.44,95.57L92.05,104.21L93.28,83.59L93.9,84.96L95.12,109.36L95.74,93.79L96.96,103.77L97.58,94.39L98.19,78.23L98.81,92.01L99.42,82.35L100.03,90.58L102.49,74.44L103.1,96.7L106.17,79.1L106.78,89.77L107.4,96.91L108.01,90.94L108.62,92.98L109.24,91.19L111.08,76.8L111.69,86.6L112.31,77.18L112.92,87.1L113.53,88.36L114.15,83.15L114.76,83.61L115.38,73.03L115.99,86.63L116.6,86.36L117.22,90.16L119.67,72.77L120.28,80.59L121.51,83.15L122.13,88.03L123.97,75.79L124.58,87.1L125.19,81.52L125.81,88.19L126.42,90.04L127.04,86.29L128.26,71.06L128.88,85.09L129.49,87.8L130.1,77.73L130.72,84.5L131.33,79.97L132.56,74.31L133.17,80.85L133.79,78.42L134.4,82.21L135.01,80.84L135.63,76.1L136.24,77.04L136.85,73.48L138.7,94.62L139.31,91.3L139.92,92.99L140.54,89.61L141.15,85.82L141.76,91.01L142.38,78.97L142.99,89.87L143.61,90.03L144.22,80.98L144.83,80.47L145.45,75.26L146.06,87.92L146.67,80.82L147.29,80.29L147.9,81.71L148.52,83.56L149.13,74.94L149.74,77.31L150.36,96.55L150.97,79.43L151.58,86.18L152.2,90.89L152.81,85.15L153.42,90.13L154.04,83.38L154.65,97.26L155.27,84.48L155.88,83.79L156.49,90.78L157.11,92.56L157.72,84.47L158.33,98.83L158.95,97.91L159.56,92.8L160.18,101.81L160.79,94.45L162.02,77.69L162.63,77.44L163.24,106.29L163.86,89.25L165.08,106.54L165.7,97.18L166.31,95.82L166.93,91.61L167.54,113.93L168.15,103.5L168.77,94.67L169.38,106.46L169.99,107.33L170.61,91.94L171.22,88.1L171.84,101.63L172.45,95.4L173.06,102.93L173.68,99.21L174.29,99.73L174.9,101.41L175.52,99.72L176.13,120.2L176.75,91.87L177.36,102.56L178.59,106.6L179.2,105.52L179.81,116.37L180.43,111.59L181.04,112.28L181.65,115.05L184.11,94.8L184.72,109.54L185.34,111.51L185.95,125.38L186.56,142.8L187.18,136.22L188.41,118.18L189.02,146.65L190.25,132.69L190.86,145.44L191.47,143.27L192.09,134.04L192.7,126.39L193.32,147.15L193.93,132.53L194.54,138.76L195.16,149.45L195.77,143.74L196.38,141.68L197,129.23L197.61,150.61L198.22,141.63L198.84,143.09L199.45,151.03L200.07,148.9L200.68,139.62L201.29,122.85L201.91,161.13L203.13,140.17L203.75,159.74L205.59,135.98L206.2,161.86L207.43,143.22L208.04,148.12L209.27,137.21L209.88,137.35L210.5,160.75L211.73,146.77L212.34,150.64L212.95,152.7L213.57,138.84L214.18,131.33L214.79,149.84L216.02,139.63L216.64,128.99L217.25,130.45L217.86,144.41L219.7,225.83L220.32,191.32L221.55,300L222.16,300L224,300L224.61,139.33L225.23,300L225.84,151.56L226.45,149.88L227.07,140.5L227.68,154.37L228.3,152.22L228.91,153.25L229.52,166.21L230.14,154.8L230.75,153.87L231.36,140.96L231.98,162.85L232.59,154.56L233.21,150L233.82,160.84L235.05,300L235.66,300L236.89,153.98L237.5,149.57L238.73,166.11L239.34,150.82L239.96,138.69L240.57,155.32L241.8,148.18L242.41,161.8L244.25,134.73L244.87,151.41L245.48,141.17L246.09,141.34L246.71,148.72L248.55,120.69L249.16,145.67L249.78,134.56L250.39,134.62L251,146.74L252.23,138.33L252.84,146.15L253.46,148.84L254.07,131.99L254.68,136.82L255.3,148.77L257.14,132.62L257.75,146.02L258.37,129.79L258.98,132.7L259.59,141.58L261.44,117.28L262.05,137.65L262.66,133.35L263.28,135.08L263.89,152.76L264.5,150.63L265.12,143.54L265.73,137.51L266.35,147.17L266.96,142.2L267.57,145.08L268.19,147.5L268.8,132.8L270.03,116.36L270.64,136.85L271.25,128.39L271.87,132.52L272.48,141.02L273.1,135.04L274.32,130.33L274.94,153.75L276.78,123.94L277.39,120.46L278.01,117.42L278.62,123.24L279.23,131.63L279.85,118.84L281.07,103.33L281.69,103.85L282.3,105.7L282.92,104.76L284.14,118.35L284.76,112.1L285.98,120.82L286.6,109.63L287.21,102.25L287.82,121.3L289.67,104.98L290.28,101.52L291.51,96.04L292.12,108.57L292.73,111.61L293.35,110.32L295.19,89.58L295.8,96.23L296.42,113.54L297.03,104.54L297.64,109.77L298.26,104.31L299.48,82.91L300.1,91.77L300.71,111.16L301.33,100.45L301.94,107.24L302.55,105.33L303.17,103.31L303.78,95.55L304.39,89.77L305.01,100.05L305.62,95.34L306.24,98.62L306.85,100.08L307.46,90.62L308.08,81.29L308.69,91.1L309.3,94.83L309.92,80.16L311.15,96.36L311.76,84.9L312.99,64.84L313.6,79.19L314.21,87.33L314.83,79.59L315.44,84.52L316.05,82.05L317.28,66.84L317.9,79.08L318.51,74.4L319.12,80.94L319.74,88.14L320.35,73L321.58,66.01L322.19,83.45L322.81,77.24L323.42,80.52L324.03,79.96L324.65,71.13L325.87,56.76L326.49,72.56L327.1,78.35L327.72,76.13L328.33,84.38L328.94,188.55L329.56,66.24L330.17,67.02L330.78,70.75L331.4,65.25L332.01,72.14L332.62,73.08L333.24,69.72L333.85,63.08L334.47,70.17L335.08,85.32L335.69,70.62L336.92,76.88L337.53,77.56L338.76,46.66L339.38,70.66L339.99,65.77L340.6,71.04L341.22,74.42L341.83,73.01L342.44,60.61L343.06,61.27L343.67,92.68L344.9,68.71L345.51,66.56L346.13,67.47L346.74,56L347.35,61.37L347.97,81.71L348.58,80.91L349.19,83.33L350.42,72.19L351.04,72.59L351.65,68.17L352.26,90.55L353.49,82.23L354.1,86.2L354.72,84.06L355.33,78.2L355.95,72L356.56,90.89L357.79,75.79L358.4,81.68L359.63,48.1L360.24,51.34L360.85,77.28L361.47,65.62L362.08,75.91L362.7,70.53L363.31,65.05L363.92,66.13L364.54,65L365.15,72.81L365.76,52.37L366.38,62.76L366.99,58.66L367.61,50.4L368.22,59.06L368.83,64.89L369.45,81.59L370.06,83.18L370.67,88.11L372.52,57.66L373.13,59.81L373.74,76.26L374.36,63.22L375.58,68.69L376.2,100.03L376.81,152.07L377.42,107.41L378.04,124.9L378.65,55.87L379.88,40.3L380.49,61.3L381.72,36.93L382.33,64.97L383.56,81.8L384.18,75.34L384.79,64.78L385.4,66L386.02,60.32L387.86,77.91L388.47,80.28L390.31,67.77L390.93,85.58L391.54,74.99L392.15,85.57L393.99,121.33L394.61,159.63L395.84,300L396.45,300L397.06,300L397.68,145.69L398.29,147.01L398.9,287.17L400.75,87.56L401.36,294.66L401.97,99.52L402.59,108.87L403.2,113.5L403.81,119.42L404.43,91.6L405.65,168.26L406.27,137.84L407.5,105.06L408.11,136.56L408.72,149.07L409.34,140.52L410.56,133.03L411.18,141.56L411.79,117.42L412.41,148.13L413.63,118.96L414.25,133.72L414.86,132.34L415.47,128.66L416.09,121.41L416.7,139.88L417.93,135.83L418.54,143.97L419.16,291.56L419.77,282.96L420.38,109.44L421,156.59L421.61,143.9L422.22,299.65L422.84,144.91L424.07,132.91L424.68,130.74L425.29,146.65L425.91,139.81L426.52,138.99L427.13,149.31L427.75,137.61L428.36,143.49L428.98,135.86L429.59,277.32L430.82,300L431.43,300L432.66,142.81L433.27,132.84L433.88,163.08L434.5,143.99L435.11,127.92L435.73,148.92L436.34,147.31L436.95,134.14L437.57,110.96L438.18,143.2L439.41,124.69L440.02,131.66L440.64,128.97L441.25,138.09L441.86,128.27L442.48,146.01L443.7,203.49L444.32,156.52L445.55,133.92L446.16,131.46L447.39,168.8L448,160.42L450.45,129.23L451.07,147.04L451.68,135.29L452.3,137.46L452.91,151.2L453.52,150.01L454.14,141.82L454.75,137.87L455.36,160.93L455.98,145.48L456.59,145.58L457.21,156.72L457.82,170.07L458.43,151.12L459.05,127.24L459.66,170.86L460.27,150.73L460.89,263.22L462.12,155.79L462.73,145.63L463.34,133.47L463.96,143.09L464.57,132.8L465.18,138.23L466.41,149.59L467.02,142.24L467.64,133.71L468.25,156.36L469.48,138.51L470.09,156.21L471.32,148.28L471.93,136.5L472.55,151.49L473.16,150.6L473.78,132.75L474.39,145.18L475,143.79L475.62,128.25L476.23,115.43L476.84,136.54L477.46,127.2L478.07,130.38L478.68,149.87L479.3,139.26L479.91,141.4L480.53,123.21L481.14,137.9L481.75,130.59L482.98,140.68L483.59,138.24L484.82,123.08L485.44,140.47L486.05,281.76L486.66,120.5L487.28,137.87L487.89,130.74L489.12,111.85L489.73,135.32L490.96,124.84L491.57,143.79L493.41,112.81L494.03,130.45L495.25,117.28L495.87,126.61L497.71,104.35L498.32,140.13L499.55,117.72L500.16,128.59L501.39,126.7L502.01,119.78L502.62,123.78L503.23,122.11L506.3,89.82L506.92,98.8L508.14,92.3L508.76,108.4L510.6,69.2L511.21,86.85L511.82,81.42L512.44,103.07L513.05,103.97L513.67,97.29L514.28,85.06L514.89,93.31L515.51,104.99L516.12,97.04L517.96,90.44L518.58,98.8L519.19,73.63L519.8,96.44L520.42,93.34L521.03,83.49L521.64,85.52L522.26,84.28L522.87,91.37L523.48,84.46L524.71,86.55L525.33,92.77L526.55,70.26L527.17,58.07L527.78,86.83L528.39,69.57L529.01,66.47L529.62,81.39L531.46,90.05L532.08,80.04L532.69,89.7L533.3,77.62L534.53,300L535.15,87.74L536.37,67.41L536.99,74.35L537.6,74.94L538.21,73.24L538.83,81.35L539.44,71.86L540.05,75.61L540.67,72.4L541.28,78.88L541.9,64.71L543.12,70.12L543.74,56.32L544.96,47.89L545.58,67.95L546.19,64.92L546.81,69.38L547.42,66.86L548.03,50.16L548.65,49.48L549.26,55.48L549.87,81.73L550.49,61.55L551.72,52.64L552.33,43.28L552.94,43.32L553.56,55.68L554.17,66.52L554.78,49.79L555.4,47.57L556.01,48.67L556.62,28.06L557.24,49.14L557.85,43.55L558.47,52.64L559.08,67.7L559.69,58.59L560.31,62.06L560.92,61.41L561.53,53.21L562.15,48.03L562.76,76.89L563.38,61.5L563.99,299.07L564.6,51.15L565.22,54.47L565.83,41.86L567.06,61.35L567.67,42.23L568.9,59.27L569.51,36.69L570.13,29.59L570.74,41.54L571.97,58.36L572.58,56.62L573.19,55.2L573.81,44.74L574.42,48.07L575.04,47.19L575.65,55.08L576.26,40.7L576.88,211.39L577.49,38.61L578.1,42.63L578.72,292.82L579.33,65.39L579.95,148.62L580.56,117.77L581.17,129.7L581.79,44.55L582.4,54.5L583.01,50.81L583.63,43.83L584.24,48.69L584.85,39.18L585.47,50.05L586.7,58.78L587.31,78.24L587.92,40.99L588.54,55.25L589.15,63.13L589.76,58.28L590.38,58.84L590.99,55.28L592.22,52.7L592.83,64.96L594.06,52.81L594.67,54.42L595.29,40.09L595.9,41.05L596.52,37.29L598.36,67.92L598.97,63.6L599.58,58.22L600.2,64.26L600.81,50.8L601.42,55.5L602.65,71.45L603.27,72.36L603.88,73.56L604.49,62.93L605.11,54.12L605.72,68.53L606.33,62.03L606.95,66.15L607.56,65.1L608.18,59.93L609.4,49.54L610.02,64.49L610.63,65.12L611.24,76.86L611.86,78.73L612.47,70.29L613.08,75.86L613.7,71.54L614.31,69.74L614.93,56.91L615.54,77.55L616.15,294.49L617.38,70.95L617.99,65.99L619.22,78.28L619.84,79.54L620.45,91.23L621.06,296.77L622.29,57.56L622.9,87.42L623.52,78.92L624.13,84.24L624.75,87.74L625.36,87.02L625.97,77.35L626.59,78.57L627.2,90.25L628.43,80.79L629.04,82.53L629.65,82.26L630.27,75.83L630.88,78.98L631.5,96.75L632.11,94.98L632.72,104.83L633.34,113.68L633.95,106.68L634.56,105.06L635.18,105.88L635.79,123.45L636.41,95.44L638.25,135.33L638.86,124.57L639.47,113.72L640.09,142.67L641.32,115.94L641.93,133.17L642.54,130.21L643.16,120.5L643.77,104.26L644.38,136.14L645.61,119.21L646.22,146.53L648.07,115.18L648.68,147.22L649.91,117.95L650.52,128.55L651.13,134.71L651.75,119.36L652.36,107.32L652.98,167.2L654.2,118.91L654.82,129.48L655.43,130.72L656.04,123.93L656.66,116.05L657.27,157.64L658.5,122.7L659.11,140.97L660.95,110.79L661.57,135.78L662.18,132.74L662.79,113.39L663.41,128.7L664.02,122.2L665.25,99.32L665.86,126.28L666.48,129.4L667.09,121.21L668.32,201.08L668.93,144.85L669.55,125.62L670.16,136.06L671.39,129.9L672,162.96L672.61,162.85L673.23,122.65L673.84,111.05L674.45,125.41L675.07,139.33L675.68,133.64L676.91,148.1L677.52,141.02L678.14,124.07L678.75,149.95L679.98,134.6L680.59,151.79L681.21,162.66L681.82,146.96L682.43,135.77L683.05,159.26L684.27,133.53L684.89,157.66L686.12,138.44L686.73,128.54L687.34,136.54L687.96,299.11L688.57,298.78L689.18,152.55L691.02,117.81L691.64,134.06L692.25,119.68L692.87,124L693.48,138.45L694.09,129.96L695.32,115.74L695.93,133.99L697.16,124.38L697.78,144.63L699,126.47L699.62,106.25L700.23,122.81L700.84,114.93L701.46,107.11L702.07,116.62L703.3,115.37L703.91,111.01L704.53,120.49L705.14,118.82L705.75,114.1L706.37,129.76L706.98,127.77L707.59,112.96L708.21,105.92L708.82,119.22L709.44,99.62L710.05,99.69L710.66,110.01L712.5,86.76L713.12,102.82L713.73,97.49L714.35,129.51L714.96,124.45L715.57,137.57L716.8,102.95L717.41,119.79L718.64,104.63L719.25,111.11L720.48,85.18L721.1,96.59L721.71,124.82L722.32,119.95L722.94,105.27L723.55,118.08L724.16,106.62L725.39,86.32L726.01,113.76L726.62,101.5L727.23,211.96L727.85,274.6L728.46,80.65L729.69,57.85L730.3,81.02L732.14,69.83L732.76,75.27L733.37,63.73L733.98,66.33L734.6,80.5L735.21,100.67L735.82,88.98L736.44,96.34L737.05,81.74L737.67,75.01L738.28,88.82L739.51,94.25L740.12,92.07L740.73,74.91L741.35,79.91L742.58,69.94L743.19,76.27L743.8,55.86L744.42,72.96L746.26,51.16L746.87,58.34L748.1,81.46L748.71,81.26L749.33,77.35L749.94,66.73L751.17,55.57L751.78,61.54L752.39,59.45L753.01,69.88L755.46,50.44L756.08,65.5L756.69,59.37L757.3,61.44L757.92,57.1L758.53,61.01L759.15,57.46L759.76,45.72L760.99,75.75L761.6,62.11L762.21,70.56L762.83,62.59L763.44,66.34L764.05,111.69L764.67,52.76L765.28,54.55L765.9,56.09L766.51,59.95L767.12,55.29L767.74,51.55L768.35,43.13L768.96,76.67L769.58,66.81L770.19,39.44L770.81,45.42L772.03,30.91L772.65,31.03L773.87,55.69L774.49,51.82L775.72,28.59L776.33,30.02L776.94,24.69L778.78,59.45L779.4,53.87L780.01,38.86L780.62,44.62L781.24,34.88L781.85,43.69L782.47,33.38L783.08,40.27L783.69,33.76L784.31,45.13L785.53,42.61L786.15,50.74L786.76,62.72L787.38,51.82L787.99,45.51L788.6,29.64L789.83,21.97L790.44,36.4L791.06,36.13L791.67,44.37L792.28,44.81L792.9,41.08L793.51,37.47L794.13,18.53L795.35,48.83L795.97,49.17L796.58,45.02L797.19,33.82L797.81,40.06L798.42,33.8L799.65,49.22L800.26,45.79L800.88,43.99L801.49,34.6L803.95,57.18L804.56,53.7L805.17,46.72L805.79,22.74L806.4,20.64L807.01,15L807.63,29.61L808.24,22.27L808.85,30.81L809.47,28.99L810.08,31.4L811.31,27.71L811.92,46.7L812.54,33.77L813.15,39.86L814.38,300L814.99,34.66L815.61,25.03L816.22,34.16L816.83,23.44L817.45,31.42L818.67,40.4L819.29,50.21L819.9,52.56L820.52,59.46L821.13,49.93L821.74,50.27L822.36,52.33L822.97,50.06L823.58,39.06L824.2,23.3L824.81,34.36L825.42,32.99L826.04,42.91L827.27,55.9L827.88,52.18L828.49,37.11L829.11,61.44L829.72,54.31L830.33,57.87L830.95,58.43L831.56,52.54L832.18,47.18L832.79,26.75L834.02,63.32L834.63,64.52L835.24,64.73L835.86,67.72L837.08,50.32L837.7,62.62L838.31,44.13L838.93,50.72L839.54,58.48L840.15,49.68L840.77,46.39L841.38,53.33L841.99,92.01L842.61,76.13L843.22,67.65L843.84,73.08L845.06,59.06L845.68,58.74L846.9,92.52L847.52,81.3L848.13,91.58L848.75,84.37L849.36,74.98L849.97,250.64L850.59,63.31L851.2,77.32L851.81,86.12L852.43,87.67L853.04,76.41L853.65,93.47L854.27,77.02L855.5,108.05L856.11,105.13L856.72,109.53L857.34,97.93L858.56,83.26L859.18,115.23L859.79,104.46L860.41,252.42L861.63,99.63L862.25,94.13L862.86,96.79L863.47,116.97L864.7,106.43L865.32,126.13L866.54,93.5L867.16,98.5L867.77,133.2L868.38,116.25L869,101.49L869.61,118.63L870.22,122.11L870.84,107.06L871.45,91.06L872.07,127.31L872.68,116.34L873.29,116.42L873.91,130.56L874.52,128.36L875.13,112.52L875.75,104.66L876.36,296.76L877.59,110.06L878.2,127.88L879.43,117.75L880.04,107.5L880.66,137.58L881.27,129.23L881.88,104.74L882.5,129.26L883.73,112.72L884.34,101.34L884.95,127.43L885.57,119.16L886.18,105.01L886.79,122.75L887.41,118.19L888.02,103.9L888.64,88.43L889.25,118.42L890.48,109.68L891.09,126.11L892.32,188.48L892.93,126.36L894.16,110.37L894.77,112.18L895.39,114.73L896,145.53" style="fill: rgb(128, 128, 128); fill-opacity: 0.1; stroke-width: 0;"/></g></g><g class="errorbars"/><g class="lines"><path class="js-line" d="M0,193.73L0.61,151.64L1.23,155.15L1.84,171.78L3.07,167.94L3.68,157.54L4.3,172.88L4.91,156.22L6.14,192.32L6.75,184.08L7.36,184.01L7.98,168.87L8.59,190.1L9.21,177.47L9.82,181.86L10.43,196.02L11.66,182.86L12.27,168.21L12.89,190.72L13.5,180.72L14.12,188.96L14.73,209.34L16.57,170.21L17.18,197.22L17.8,171.3L18.41,189.38L19.02,193.12L19.64,184.24L20.87,166.75L21.48,176.72L22.09,178.7L22.71,173.68L23.32,185.09L23.93,174.29L25.16,143.76L25.78,156.2L26.39,157.7L27,168.99L28.23,182.98L28.84,175.48L29.46,168.34L30.07,171.19L30.68,168.29L31.3,175.77L31.91,179.06L32.53,165.02L33.14,167.19L33.75,147.47L34.37,155.78L34.98,145.69L36.21,162.3L36.82,163.31L37.44,157.31L38.05,142.24L38.66,155.32L39.28,145.13L40.5,163.73L41.12,160.26L42.35,149.45L42.96,165.18L43.57,151.72L44.19,152.31L44.8,164.42L45.41,163.68L46.03,151.48L46.64,133.6L47.25,157.41L47.87,141.45L48.48,147.8L49.1,158.43L49.71,145.68L50.94,128.3L51.55,145.35L52.16,128.72L52.78,131.38L53.39,145.51L54.01,148.94L54.62,144.35L55.23,133.71L55.85,148.38L56.46,131.81L57.07,140.39L57.69,148.13L58.3,142.33L58.92,141.19L59.53,124.85L60.14,138.44L60.76,122.56L61.98,128.64L62.6,120.28L63.21,112.78L63.82,114.08L64.44,123.37L65.05,126.78L65.67,111.18L66.28,124.18L66.89,121.22L67.51,116.6L68.12,115.02L68.73,134.47L69.96,123.64L70.58,124.15L72.42,94.19L73.03,300L73.64,112.87L74.26,113.04L74.87,120.74L75.48,117.19L76.1,103.49L76.71,96.57L77.33,113.63L77.94,96.61L78.55,103.57L79.17,109.88L79.78,109.26L80.39,97.43L81.01,96.49L81.62,97.5L82.24,96.81L82.85,111.61L83.46,113.62L84.08,97.73L84.69,96.36L85.3,100.6L85.92,106.7L86.53,90.61L87.76,112.83L88.37,99.22L88.99,99.16L89.6,94.37L90.21,103.66L90.83,95.9L91.44,95.57L92.05,104.21L93.28,83.59L93.9,84.96L95.12,109.36L95.74,93.79L96.96,103.77L97.58,94.39L98.19,78.23L98.81,92.01L99.42,82.35L100.03,90.58L102.49,74.44L103.1,96.7L106.17,79.1L106.78,89.77L107.4,96.91L108.01,90.94L108.62,92.98L109.24,91.19L111.08,76.8L111.69,86.6L112.31,77.18L112.92,87.1L113.53,88.36L114.15,83.15L114.76,83.61L115.38,73.03L115.99,86.63L116.6,86.36L117.22,90.16L119.67,72.77L120.28,80.59L121.51,83.15L122.13,88.03L123.97,75.79L124.58,87.1L125.19,81.52L125.81,88.19L126.42,90.04L127.04,86.29L128.26,71.06L128.88,85.09L129.49,87.8L130.1,77.73L130.72,84.5L131.33,79.97L132.56,74.31L133.17,80.85L133.79,78.42L134.4,82.21L135.01,80.84L135.63,76.1L136.24,77.04L136.85,73.48L138.7,94.62L139.31,91.3L139.92,92.99L140.54,89.61L141.15,85.82L141.76,91.01L142.38,78.97L142.99,89.87L143.61,90.03L144.22,80.98L144.83,80.47L145.45,75.26L146.06,87.92L146.67,80.82L147.29,80.29L147.9,81.71L148.52,83.56L149.13,74.94L149.74,77.31L150.36,96.55L150.97,79.43L151.58,86.18L152.2,90.89L152.81,85.15L153.42,90.13L154.04,83.38L154.65,97.26L155.27,84.48L155.88,83.79L156.49,90.78L157.11,92.56L157.72,84.47L158.33,98.83L158.95,97.91L159.56,92.8L160.18,101.81L160.79,94.45L162.02,77.69L162.63,77.44L163.24,106.29L163.86,89.25L165.08,106.54L165.7,97.18L166.31,95.82L166.93,91.61L167.54,113.93L168.15,103.5L168.77,94.67L169.38,106.46L169.99,107.33L170.61,91.94L171.22,88.1L171.84,101.63L172.45,95.4L173.06,102.93L173.68,99.21L174.29,99.73L174.9,101.41L175.52,99.72L176.13,120.2L176.75,91.87L177.36,102.56L178.59,106.6L179.2,105.52L179.81,116.37L180.43,111.59L181.04,112.28L181.65,115.05L184.11,94.8L184.72,109.54L185.34,111.51L185.95,125.38L186.56,142.8L187.18,136.22L188.41,118.18L189.02,146.65L190.25,132.69L190.86,145.44L191.47,143.27L192.09,134.04L192.7,126.39L193.32,147.15L193.93,132.53L194.54,138.76L195.16,149.45L195.77,143.74L196.38,141.68L197,129.23L197.61,150.61L198.22,141.63L198.84,143.09L199.45,151.03L200.07,148.9L200.68,139.62L201.29,122.85L201.91,161.13L203.13,140.17L203.75,159.74L205.59,135.98L206.2,161.86L207.43,143.22L208.04,148.12L209.27,137.21L209.88,137.35L210.5,160.75L211.73,146.77L212.34,150.64L212.95,152.7L213.57,138.84L214.18,131.33L214.79,149.84L216.02,139.63L216.64,128.99L217.25,130.45L217.86,144.41L219.7,225.83L220.32,191.32L221.55,300L222.16,300L224,300L224.61,139.33L225.23,300L225.84,151.56L226.45,149.88L227.07,140.5L227.68,154.37L228.3,152.22L228.91,153.25L229.52,166.21L230.14,154.8L230.75,153.87L231.36,140.96L231.98,162.85L232.59,154.56L233.21,150L233.82,160.84L235.05,300L235.66,300L236.89,153.98L237.5,149.57L238.73,166.11L239.34,150.82L239.96,138.69L240.57,155.32L241.8,148.18L242.41,161.8L244.25,134.73L244.87,151.41L245.48,141.17L246.09,141.34L246.71,148.72L248.55,120.69L249.16,145.67L249.78,134.56L250.39,134.62L251,146.74L252.23,138.33L252.84,146.15L253.46,148.84L254.07,131.99L254.68,136.82L255.3,148.77L257.14,132.62L257.75,146.02L258.37,129.79L258.98,132.7L259.59,141.58L261.44,117.28L262.05,137.65L262.66,133.35L263.28,135.08L263.89,152.76L264.5,150.63L265.12,143.54L265.73,137.51L266.35,147.17L266.96,142.2L267.57,145.08L268.19,147.5L268.8,132.8L270.03,116.36L270.64,136.85L271.25,128.39L271.87,132.52L272.48,141.02L273.1,135.04L274.32,130.33L274.94,153.75L276.78,123.94L277.39,120.46L278.01,117.42L278.62,123.24L279.23,131.63L279.85,118.84L281.07,103.33L281.69,103.85L282.3,105.7L282.92,104.76L284.14,118.35L284.76,112.1L285.98,120.82L286.6,109.63L287.21,102.25L287.82,121.3L289.67,104.98L290.28,101.52L291.51,96.04L292.12,108.57L292.73,111.61L293.35,110.32L295.19,89.58L295.8,96.23L296.42,113.54L297.03,104.54L297.64,109.77L298.26,104.31L299.48,82.91L300.1,91.77L300.71,111.16L301.33,100.45L301.94,107.24L302.55,105.33L303.17,103.31L303.78,95.55L304.39,89.77L305.01,100.05L305.62,95.34L306.24,98.62L306.85,100.08L307.46,90.62L308.08,81.29L308.69,91.1L309.3,94.83L309.92,80.16L311.15,96.36L311.76,84.9L312.99,64.84L313.6,79.19L314.21,87.33L314.83,79.59L315.44,84.52L316.05,82.05L317.28,66.84L317.9,79.08L318.51,74.4L319.12,80.94L319.74,88.14L320.35,73L321.58,66.01L322.19,83.45L322.81,77.24L323.42,80.52L324.03,79.96L324.65,71.13L325.87,56.76L326.49,72.56L327.1,78.35L327.72,76.13L328.33,84.38L328.94,188.55L329.56,66.24L330.17,67.02L330.78,70.75L331.4,65.25L332.01,72.14L332.62,73.08L333.24,69.72L333.85,63.08L334.47,70.17L335.08,85.32L335.69,70.62L336.92,76.88L337.53,77.56L338.76,46.66L339.38,70.66L339.99,65.77L340.6,71.04L341.22,74.42L341.83,73.01L342.44,60.61L343.06,61.27L343.67,92.68L344.9,68.71L345.51,66.56L346.13,67.47L346.74,56L347.35,61.37L347.97,81.71L348.58,80.91L349.19,83.33L350.42,72.19L351.04,72.59L351.65,68.17L352.26,90.55L353.49,82.23L354.1,86.2L354.72,84.06L355.33,78.2L355.95,72L356.56,90.89L357.79,75.79L358.4,81.68L359.63,48.1L360.24,51.34L360.85,77.28L361.47,65.62L362.08,75.91L362.7,70.53L363.31,65.05L363.92,66.13L364.54,65L365.15,72.81L365.76,52.37L366.38,62.76L366.99,58.66L367.61,50.4L368.22,59.06L368.83,64.89L369.45,81.59L370.06,83.18L370.67,88.11L372.52,57.66L373.13,59.81L373.74,76.26L374.36,63.22L375.58,68.69L376.2,100.03L376.81,152.07L377.42,107.41L378.04,124.9L378.65,55.87L379.88,40.3L380.49,61.3L381.72,36.93L382.33,64.97L383.56,81.8L384.18,75.34L384.79,64.78L385.4,66L386.02,60.32L387.86,77.91L388.47,80.28L390.31,67.77L390.93,85.58L391.54,74.99L392.15,85.57L393.99,121.33L394.61,159.63L395.84,300L396.45,300L397.06,300L397.68,145.69L398.29,147.01L398.9,287.17L400.75,87.56L401.36,294.66L401.97,99.52L402.59,108.87L403.2,113.5L403.81,119.42L404.43,91.6L405.65,168.26L406.27,137.84L407.5,105.06L408.11,136.56L408.72,149.07L409.34,140.52L410.56,133.03L411.18,141.56L411.79,117.42L412.41,148.13L413.63,118.96L414.25,133.72L414.86,132.34L415.47,128.66L416.09,121.41L416.7,139.88L417.93,135.83L418.54,143.97L419.16,291.56L419.77,282.96L420.38,109.44L421,156.59L421.61,143.9L422.22,299.65L422.84,144.91L424.07,132.91L424.68,130.74L425.29,146.65L425.91,139.81L426.52,138.99L427.13,149.31L427.75,137.61L428.36,143.49L428.98,135.86L429.59,277.32L430.82,300L431.43,300L432.66,142.81L433.27,132.84L433.88,163.08L434.5,143.99L435.11,127.92L435.73,148.92L436.34,147.31L436.95,134.14L437.57,110.96L438.18,143.2L439.41,124.69L440.02,131.66L440.64,128.97L441.25,138.09L441.86,128.27L442.48,146.01L443.7,203.49L444.32,156.52L445.55,133.92L446.16,131.46L447.39,168.8L448,160.42L450.45,129.23L451.07,147.04L451.68,135.29L452.3,137.46L452.91,151.2L453.52,150.01L454.14,141.82L454.75,137.87L455.36,160.93L455.98,145.48L456.59,145.58L457.21,156.72L457.82,170.07L458.43,151.12L459.05,127.24L459.66,170.86L460.27,150.73L460.89,263.22L462.12,155.79L462.73,145.63L463.34,133.47L463.96,143.09L464.57,132.8L465.18,138.23L466.41,149.59L467.02,142.24L467.64,133.71L468.25,156.36L469.48,138.51L470.09,156.21L471.32,148.28L471.93,136.5L472.55,151.49L473.16,150.6L473.78,132.75L474.39,145.18L475,143.79L475.62,128.25L476.23,115.43L476.84,136.54L477.46,127.2L478.07,130.38L478.68,149.87L479.3,139.26L479.91,141.4L480.53,123.21L481.14,137.9L481.75,130.59L482.98,140.68L483.59,138.24L484.82,123.08L485.44,140.47L486.05,281.76L486.66,120.5L487.28,137.87L487.89,130.74L489.12,111.85L489.73,135.32L490.96,124.84L491.57,143.79L493.41,112.81L494.03,130.45L495.25,117.28L495.87,126.61L497.71,104.35L498.32,140.13L499.55,117.72L500.16,128.59L501.39,126.7L502.01,119.78L502.62,123.78L503.23,122.11L506.3,89.82L506.92,98.8L508.14,92.3L508.76,108.4L510.6,69.2L511.21,86.85L511.82,81.42L512.44,103.07L513.05,103.97L513.67,97.29L514.28,85.06L514.89,93.31L515.51,104.99L516.12,97.04L517.96,90.44L518.58,98.8L519.19,73.63L519.8,96.44L520.42,93.34L521.03,83.49L521.64,85.52L522.26,84.28L522.87,91.37L523.48,84.46L524.71,86.55L525.33,92.77L526.55,70.26L527.17,58.07L527.78,86.83L528.39,69.57L529.01,66.47L529.62,81.39L531.46,90.05L532.08,80.04L532.69,89.7L533.3,77.62L534.53,300L535.15,87.74L536.37,67.41L536.99,74.35L537.6,74.94L538.21,73.24L538.83,81.35L539.44,71.86L540.05,75.61L540.67,72.4L541.28,78.88L541.9,64.71L543.12,70.12L543.74,56.32L544.96,47.89L545.58,67.95L546.19,64.92L546.81,69.38L547.42,66.86L548.03,50.16L548.65,49.48L549.26,55.48L549.87,81.73L550.49,61.55L551.72,52.64L552.33,43.28L552.94,43.32L553.56,55.68L554.17,66.52L554.78,49.79L555.4,47.57L556.01,48.67L556.62,28.06L557.24,49.14L557.85,43.55L558.47,52.64L559.08,67.7L559.69,58.59L560.31,62.06L560.92,61.41L561.53,53.21L562.15,48.03L562.76,76.89L563.38,61.5L563.99,299.07L564.6,51.15L565.22,54.47L565.83,41.86L567.06,61.35L567.67,42.23L568.9,59.27L569.51,36.69L570.13,29.59L570.74,41.54L571.97,58.36L572.58,56.62L573.19,55.2L573.81,44.74L574.42,48.07L575.04,47.19L575.65,55.08L576.26,40.7L576.88,211.39L577.49,38.61L578.1,42.63L578.72,292.82L579.33,65.39L579.95,148.62L580.56,117.77L581.17,129.7L581.79,44.55L582.4,54.5L583.01,50.81L583.63,43.83L584.24,48.69L584.85,39.18L585.47,50.05L586.7,58.78L587.31,78.24L587.92,40.99L588.54,55.25L589.15,63.13L589.76,58.28L590.38,58.84L590.99,55.28L592.22,52.7L592.83,64.96L594.06,52.81L594.67,54.42L595.29,40.09L595.9,41.05L596.52,37.29L598.36,67.92L598.97,63.6L599.58,58.22L600.2,64.26L600.81,50.8L601.42,55.5L602.65,71.45L603.27,72.36L603.88,73.56L604.49,62.93L605.11,54.12L605.72,68.53L606.33,62.03L606.95,66.15L607.56,65.1L608.18,59.93L609.4,49.54L610.02,64.49L610.63,65.12L611.24,76.86L611.86,78.73L612.47,70.29L613.08,75.86L613.7,71.54L614.31,69.74L614.93,56.91L615.54,77.55L616.15,294.49L617.38,70.95L617.99,65.99L619.22,78.28L619.84,79.54L620.45,91.23L621.06,296.77L622.29,57.56L622.9,87.42L623.52,78.92L624.13,84.24L624.75,87.74L625.36,87.02L625.97,77.35L626.59,78.57L627.2,90.25L628.43,80.79L629.04,82.53L629.65,82.26L630.27,75.83L630.88,78.98L631.5,96.75L632.11,94.98L632.72,104.83L633.34,113.68L633.95,106.68L634.56,105.06L635.18,105.88L635.79,123.45L636.41,95.44L638.25,135.33L638.86,124.57L639.47,113.72L640.09,142.67L641.32,115.94L641.93,133.17L642.54,130.21L643.16,120.5L643.77,104.26L644.38,136.14L645.61,119.21L646.22,146.53L648.07,115.18L648.68,147.22L649.91,117.95L650.52,128.55L651.13,134.71L651.75,119.36L652.36,107.32L652.98,167.2L654.2,118.91L654.82,129.48L655.43,130.72L656.04,123.93L656.66,116.05L657.27,157.64L658.5,122.7L659.11,140.97L660.95,110.79L661.57,135.78L662.18,132.74L662.79,113.39L663.41,128.7L664.02,122.2L665.25,99.32L665.86,126.28L666.48,129.4L667.09,121.21L668.32,201.08L668.93,144.85L669.55,125.62L670.16,136.06L671.39,129.9L672,162.96L672.61,162.85L673.23,122.65L673.84,111.05L674.45,125.41L675.07,139.33L675.68,133.64L676.91,148.1L677.52,141.02L678.14,124.07L678.75,149.95L679.98,134.6L680.59,151.79L681.21,162.66L681.82,146.96L682.43,135.77L683.05,159.26L684.27,133.53L684.89,157.66L686.12,138.44L686.73,128.54L687.34,136.54L687.96,299.11L688.57,298.78L689.18,152.55L691.02,117.81L691.64,134.06L692.25,119.68L692.87,124L693.48,138.45L694.09,129.96L695.32,115.74L695.93,133.99L697.16,124.38L697.78,144.63L699,126.47L699.62,106.25L700.23,122.81L700.84,114.93L701.46,107.11L702.07,116.62L703.3,115.37L703.91,111.01L704.53,120.49L705.14,118.82L705.75,114.1L706.37,129.76L706.98,127.77L707.59,112.96L708.21,105.92L708.82,119.22L709.44,99.62L710.05,99.69L710.66,110.01L712.5,86.76L713.12,102.82L713.73,97.49L714.35,129.51L714.96,124.45L715.57,137.57L716.8,102.95L717.41,119.79L718.64,104.63L719.25,111.11L720.48,85.18L721.1,96.59L721.71,124.82L722.32,119.95L722.94,105.27L723.55,118.08L724.16,106.62L725.39,86.32L726.01,113.76L726.62,101.5L727.23,211.96L727.85,274.6L728.46,80.65L729.69,57.85L730.3,81.02L732.14,69.83L732.76,75.27L733.37,63.73L733.98,66.33L734.6,80.5L735.21,100.67L735.82,88.98L736.44,96.34L737.05,81.74L737.67,75.01L738.28,88.82L739.51,94.25L740.12,92.07L740.73,74.91L741.35,79.91L742.58,69.94L743.19,76.27L743.8,55.86L744.42,72.96L746.26,51.16L746.87,58.34L748.1,81.46L748.71,81.26L749.33,77.35L749.94,66.73L751.17,55.57L751.78,61.54L752.39,59.45L753.01,69.88L755.46,50.44L756.08,65.5L756.69,59.37L757.3,61.44L757.92,57.1L758.53,61.01L759.15,57.46L759.76,45.72L760.99,75.75L761.6,62.11L762.21,70.56L762.83,62.59L763.44,66.34L764.05,111.69L764.67,52.76L765.28,54.55L765.9,56.09L766.51,59.95L767.12,55.29L767.74,51.55L768.35,43.13L768.96,76.67L769.58,66.81L770.19,39.44L770.81,45.42L772.03,30.91L772.65,31.03L773.87,55.69L774.49,51.82L775.72,28.59L776.33,30.02L776.94,24.69L778.78,59.45L779.4,53.87L780.01,38.86L780.62,44.62L781.24,34.88L781.85,43.69L782.47,33.38L783.08,40.27L783.69,33.76L784.31,45.13L785.53,42.61L786.15,50.74L786.76,62.72L787.38,51.82L787.99,45.51L788.6,29.64L789.83,21.97L790.44,36.4L791.06,36.13L791.67,44.37L792.28,44.81L792.9,41.08L793.51,37.47L794.13,18.53L795.35,48.83L795.97,49.17L796.58,45.02L797.19,33.82L797.81,40.06L798.42,33.8L799.65,49.22L800.26,45.79L800.88,43.99L801.49,34.6L803.95,57.18L804.56,53.7L805.17,46.72L805.79,22.74L806.4,20.64L807.01,15L807.63,29.61L808.24,22.27L808.85,30.81L809.47,28.99L810.08,31.4L811.31,27.71L811.92,46.7L812.54,33.77L813.15,39.86L814.38,300L814.99,34.66L815.61,25.03L816.22,34.16L816.83,23.44L817.45,31.42L818.67,40.4L819.29,50.21L819.9,52.56L820.52,59.46L821.13,49.93L821.74,50.27L822.36,52.33L822.97,50.06L823.58,39.06L824.2,23.3L824.81,34.36L825.42,32.99L826.04,42.91L827.27,55.9L827.88,52.18L828.49,37.11L829.11,61.44L829.72,54.31L830.33,57.87L830.95,58.43L831.56,52.54L832.18,47.18L832.79,26.75L834.02,63.32L834.63,64.52L835.24,64.73L835.86,67.72L837.08,50.32L837.7,62.62L838.31,44.13L838.93,50.72L839.54,58.48L840.15,49.68L840.77,46.39L841.38,53.33L841.99,92.01L842.61,76.13L843.22,67.65L843.84,73.08L845.06,59.06L845.68,58.74L846.9,92.52L847.52,81.3L848.13,91.58L848.75,84.37L849.36,74.98L849.97,250.64L850.59,63.31L851.2,77.32L851.81,86.12L852.43,87.67L853.04,76.41L853.65,93.47L854.27,77.02L855.5,108.05L856.11,105.13L856.72,109.53L857.34,97.93L858.56,83.26L859.18,115.23L859.79,104.46L860.41,252.42L861.63,99.63L862.25,94.13L862.86,96.79L863.47,116.97L864.7,106.43L865.32,126.13L866.54,93.5L867.16,98.5L867.77,133.2L868.38,116.25L869,101.49L869.61,118.63L870.22,122.11L870.84,107.06L871.45,91.06L872.07,127.31L872.68,116.34L873.29,116.42L873.91,130.56L874.52,128.36L875.13,112.52L875.75,104.66L876.36,296.76L877.59,110.06L878.2,127.88L879.43,117.75L880.04,107.5L880.66,137.58L881.27,129.23L881.88,104.74L882.5,129.26L883.73,112.72L884.34,101.34L884.95,127.43L885.57,119.16L886.18,105.01L886.79,122.75L887.41,118.19L888.02,103.9L888.64,88.43L889.25,118.42L890.48,109.68L891.09,126.11L892.32,188.48L892.93,126.36L894.16,110.37L894.77,112.18L895.39,114.73L896,145.53" style="vector-effect: none; fill: none; stroke: rgb(128, 128, 128); stroke-opacity: 1; stroke-width: 1.5px; opacity: 1;"/></g><g class="points"/><g class="text"/></g><g class="trace scatter trace641270" style="stroke-miterlimit: 2;"><g class="fills"><g><path class="js-fill" d="M896,300L0,300L0,296.81L0.61,291.83L1.23,293.14L3.07,294.75L3.68,294.31L4.3,293.94L4.91,292.2L5.52,293.83L6.14,293.34L7.98,292.93L8.59,295.64L9.82,293.86L10.43,293.5L12.27,292.54L12.89,295.22L14.12,292.87L14.73,293.12L16.57,292.46L17.18,294.94L19.02,293.04L19.64,292.42L20.87,292.31L21.48,295.15L22.71,293.2L23.32,292.97L25.16,291.26L25.78,293.24L28.23,291.9L28.84,292.29L29.46,292.61L30.07,291.88L30.68,291.01L31.3,292.65L32.53,291.65L33.14,291.22L33.75,291.04L34.37,292.58L34.98,291.46L35.59,291.85L36.21,292.31L37.44,291.52L38.05,291.47L38.66,293.23L39.28,292.9L39.89,292.22L41.73,291.21L42.35,291.94L42.96,294.07L43.57,292.93L45.41,291.17L46.03,291.53L46.64,291.35L47.25,294.01L48.48,292.06L49.1,292.18L50.32,290.96L50.94,291.51L51.55,294.82L52.16,293.25L52.78,291.84L53.39,292.11L54.01,291.68L55.23,291.44L55.85,294.64L57.07,292.52L57.69,292.51L58.92,291.29L59.53,290.95L60.14,293.48L60.76,292.74L62.6,291.83L63.21,290.73L65.05,294.85L65.67,291.39L68.12,291.58L68.73,292.7L69.96,291.46L70.58,291.16L72.42,289.91L73.03,300L74.26,291.68L74.87,291.5L76.71,290.44L77.33,294.38L78.55,291.36L79.17,291.16L80.39,289.48L81.01,290.33L81.62,293.77L82.24,291.38L84.69,288.5L85.3,289.54L85.92,292.4L86.53,289.76L87.76,289.61L88.37,286.79L90.21,290.64L90.83,287.26L91.44,287.13L92.05,289.64L93.28,288.72L93.9,288.75L94.51,291.64L95.12,290.14L95.74,288.18L96.35,289.43L96.96,289.16L97.58,287.76L98.19,287.95L98.81,291.6L100.03,287.82L100.65,288.42L101.87,287.46L102.49,288.22L103.1,291.03L103.72,288.42L104.33,288.05L104.94,288.72L106.17,286.84L106.78,287.66L107.4,290.95L108.01,289.03L109.24,288.04L109.85,287.95L110.47,285.79L111.08,286.17L111.69,289.7L112.31,287.53L112.92,287.85L113.53,289.21L115.38,286.35L115.99,288.88L117.22,288.11L117.83,288.56L118.44,288.17L119.06,288.71L119.67,286.92L120.28,288.38L121.51,286.68L122.13,288.52L123.35,287.75L123.97,288.67L124.58,289.43L125.19,288.98L125.81,288.8L126.42,290.39L128.26,288.63L128.88,289.27L129.49,288.79L130.1,289.33L131.33,290.94L131.95,290.71L133.17,290.56L133.79,290.66L134.4,290.62L135.01,291.76L135.63,290.81L136.24,291.46L138.08,290.65L138.7,290.66L139.92,291.74L140.54,290.8L142.99,290.33L143.61,291.22L144.83,289.6L145.45,289.52L146.06,290.98L146.67,289.68L149.13,289.24L149.74,289.16L150.36,291.94L150.97,289.56L152.2,290.41L152.81,288.87L154.04,289.14L154.65,292.04L155.27,289.01L155.88,289.23L156.49,290.1L157.72,287.94L158.33,289.94L158.95,291.45L159.56,289.41L160.79,289.97L161.4,289.84L162.02,288.21L162.63,289.11L163.24,293.13L163.86,289.63L164.47,290.02L165.08,289.46L166.93,288.98L167.54,292.29L168.15,290.09L168.77,290.52L169.38,291.55L170.61,290.09L171.22,290.59L171.84,293.65L172.45,291.88L173.68,291.07L174.29,290.55L175.52,290.26L176.13,293.11L177.36,291.38L177.97,291.94L179.81,290.8L180.43,293.02L182.88,291.08L183.5,291.03L184.11,291.2L184.72,293.42L185.34,292.38L185.95,294.11L187.79,291.67L188.41,292.52L189.02,294.18L189.63,291.99L190.86,292.33L191.47,291.63L192.09,291.4L192.7,292.43L193.32,294.98L193.93,292.59L194.54,292.85L195.16,292.06L195.77,291.35L196.38,291.86L197,292.34L197.61,295.35L198.84,293.39L199.45,293.09L201.29,292.86L201.91,295.96L203.75,292.75L204.36,291.74L205.59,292.16L206.2,295.71L208.04,292.65L208.66,292.22L209.27,291.78L209.88,292.62L210.5,295.24L211.11,293.99L212.95,291.56L213.57,291.99L214.18,290.7L214.79,293.31L215.41,293.89L216.02,292.32L217.86,292.6L218.48,294.88L219.7,297.68L220.32,295.24L221.55,300L222.16,300L224,300L224.61,292.93L225.23,300L225.84,294.91L227.07,294.92L227.68,294.82L228.3,293.82L228.91,294.47L230.75,293.04L231.36,293.7L231.98,295.76L232.59,294.56L233.21,292.5L233.82,293.27L235.05,300L235.66,300L236.89,294.27L237.5,292.98L239.34,291.74L239.96,292.42L240.57,295.37L241.18,294.29L243.02,292.79L243.64,292.68L244.25,293.41L244.87,295.49L246.71,293.22L247.32,292.59L248.55,291.15L249.16,293.64L249.78,294.27L250.39,293.38L251,293.48L251.62,292.12L252.23,291.72L252.84,292.29L254.07,292.13L254.68,293.78L255.91,293.28L256.53,292.36L257.75,294.11L258.37,292.8L259.59,293.57L260.21,292.33L261.44,292.53L262.05,293.95L263.89,293.66L264.5,292.06L265.12,291.62L265.73,292.44L266.35,295L266.96,293.13L269.41,291.51L270.03,291.38L270.64,294.78L271.25,292.76L271.87,291.99L272.48,292.72L273.71,291.51L274.32,291.86L274.94,295.14L275.55,293.61L276.78,292.8L277.39,292.08L278.62,291.84L279.23,293.59L281.07,292.96L281.69,291.76L282.3,291.22L282.92,293.34L284.14,295.76L284.76,292.81L285.37,292.46L285.98,293L287.21,292.14L287.82,294.06L289.05,292.05L289.67,291.86L291.51,290.97L292.12,293.85L293.35,292.29L293.96,292.27L295.19,290.98L295.8,289.72L297.03,294.34L297.64,292.27L300.1,291.46L300.71,294.44L302.55,291.05L303.17,290.65L303.78,290.4L304.39,291.24L305.01,294.19L305.62,292.26L306.85,290.84L307.46,289.1L309.3,294.31L309.92,289.78L311.15,290.63L311.76,289.54L312.99,287.58L313.6,291.67L314.21,292.72L314.83,289.6L317.28,290.28L317.9,292.45L318.51,289.02L319.12,289.76L319.74,290.81L320.96,288.95L321.58,289.04L322.19,291.27L322.81,287.63L324.65,289.27L325.26,287.39L325.87,287.63L326.49,291.39L327.72,288.01L328.33,289.05L328.94,294.19L329.56,287.12L330.17,287.64L330.78,290.67L332.01,288.17L332.62,289.34L334.47,287.65L335.08,289.54L335.69,287.86L336.31,288.87L337.53,289.34L338.15,287.81L338.76,287.69L339.38,289.85L340.6,288.41L341.22,289.56L342.44,288.4L343.06,289.2L343.67,289.85L344.28,288.04L344.9,288.17L345.51,290.13L346.13,290.05L346.74,288.55L347.97,290.4L348.58,289.2L350.42,290.07L351.04,289.37L351.65,289.3L352.26,290.42L352.88,289.16L353.49,290.28L354.72,291.18L355.33,291.15L357.79,290.82L358.4,292.44L360.85,291.33L361.47,291.46L362.7,291.76L363.31,291.63L365.15,291.72L365.76,289.82L366.99,291.47L367.61,290.06L368.22,289.34L368.83,289.88L369.45,292.07L370.06,290.45L370.67,291.17L371.29,289.2L371.9,289.72L372.52,288.68L373.13,289.2L373.74,291.83L374.36,289.48L374.97,290.08L375.58,291.27L376.2,291.77L376.81,293.45L377.42,292.26L378.04,294.24L379.27,288.87L379.88,289.07L380.49,289.57L381.11,288.59L381.72,288.16L382.33,292.49L382.95,289.39L383.56,289.8L384.18,290.07L385.4,288.43L386.02,288.85L386.63,292.52L387.24,290.31L388.47,290.22L389.08,289.18L390.31,288.5L390.93,292.31L391.54,289.54L392.15,290.74L393.99,291.52L394.61,293.02L395.84,300L396.45,300L397.06,300L397.68,293.02L398.29,293.26L398.9,299.52L399.52,297.32L400.13,291.81L400.75,291.16L401.36,299.94L402.59,291.23L403.2,291.69L403.81,293.43L404.43,292.74L405.04,293.13L405.65,294.74L406.88,292.34L407.5,291.55L408.11,294.74L408.72,293.13L409.34,294.48L409.95,293.7L411.18,294.28L411.79,293.39L412.41,295.56L413.02,293.02L414.25,292.65L414.86,292.15L416.09,292.92L416.7,295.31L417.93,293L418.54,292.72L419.16,299.78L419.77,299.55L420.38,292.28L421,295.48L421.61,293.68L422.22,299.99L422.84,292.95L423.45,292.43L424.07,293.01L424.68,293.29L425.29,295.9L426.52,292.94L427.13,292.72L428.36,291.61L428.98,293.09L430.2,300L430.82,300L431.43,300L432.04,292.88L433.27,292.78L433.88,295.26L435.11,293.27L435.73,292.99L437.57,291.46L438.18,294.15L440.02,292.67L440.64,292.53L441.25,293.41L441.86,292.9L442.48,293.73L443.09,297.25L443.7,297.39L444.32,294.28L444.93,293.71L445.55,294.35L446.77,295.52L447.39,298L448,296.84L448.61,294.02L449.84,294.75L450.45,294.22L451.07,294.48L451.68,293.66L453.52,294.35L454.14,294.07L454.75,293.89L455.36,295.63L456.59,293.22L457.21,293.87L459.05,292.59L459.66,296.06L460.27,294.01L460.89,298.6L462.12,292.98L462.73,292.52L463.34,292.98L463.96,295.61L465.18,293.5L465.8,293.28L467.02,292.44L467.64,293.47L468.25,295.81L468.87,294.4L470.09,293.73L470.71,293.25L471.93,291.77L472.55,293.83L473.78,294.41L474.39,293.93L476.23,292.14L476.84,292.84L477.46,291.84L478.07,293.37L479.91,292.5L480.53,293.22L481.14,294.06L481.75,292.91L482.98,293.14L483.59,292.27L484.21,291.9L484.82,292.6L486.05,299.6L486.66,292.84L487.89,292.33L488.5,290.83L489.12,292.07L489.73,295.1L491.57,292.08L492.19,292.5L492.8,291.44L493.41,292.25L494.03,294.72L494.64,293.22L495.87,293.06L496.48,291.85L497.71,291.7L498.32,294.63L499.55,293.5L500.16,292.88L501.39,291.22L502.01,293.27L503.23,295.94L503.85,293.64L506.3,292.96L506.92,294.48L508.14,292.58L508.76,292.92L509.98,291.53L510.6,292.09L511.21,294.58L511.82,292.13L513.67,290.7L514.28,290.85L514.89,291.24L515.51,293.95L516.73,291.47L517.35,291.96L517.96,290.82L518.58,291.72L519.19,291.3L519.8,294.6L521.03,292.07L521.64,292.16L522.26,293.8L522.87,292.52L523.48,292.59L524.1,294.26L525.33,291.24L525.94,291.29L526.55,289.8L527.17,291.33L528.39,294.23L529.01,289.97L530.85,290.66L531.46,290.14L532.08,289.59L532.69,293.75L533.3,292.34L533.92,298.67L534.53,300L535.15,290.6L536.37,289L536.99,291.93L538.21,288.63L538.83,290.1L540.67,289.82L541.28,291.29L541.9,288.21L542.51,289.67L543.12,290.57L543.74,289.65L544.35,288.57L544.96,289.16L545.58,292.65L546.19,290.38L546.81,288.97L547.42,289.83L549.26,287.37L549.87,290.74L551.1,288.37L551.72,289.5L552.94,287.12L553.56,287.29L554.17,290.9L554.78,288.65L555.4,288.42L556.01,289.16L556.62,288.88L557.24,286.73L557.85,287.4L558.47,289.64L559.08,287.92L559.69,288.37L560.31,289.45L562.15,287.89L562.76,290.08L563.38,288.18L563.99,299.99L565.22,288.37L565.83,287.88L567.06,289.61L567.67,288.04L568.28,286.05L568.9,290.03L569.51,288.33L570.13,288.68L570.74,288.29L571.97,288.81L572.58,288.68L573.19,290.2L573.81,289.13L574.42,287.49L575.04,289.5L575.65,289.86L576.26,288.18L576.88,296.21L577.49,290.22L578.1,289.43L578.72,299.94L579.33,290.11L579.95,293.2L581.79,291.17L582.4,292.04L584.24,290.07L584.85,291.03L585.47,291.02L586.08,292.56L587.31,291.36L587.92,291.15L590.99,291.57L591.61,290.58L592.22,290.52L592.83,291.45L593.45,290L594.06,290.4L594.67,291.39L595.9,290.1L596.52,289.8L597.13,291.03L597.74,288.52L598.97,290.48L599.58,290.46L600.81,290.26L601.42,292.56L602.04,290.01L602.65,290.3L603.27,290.61L605.11,289.66L605.72,292.49L606.33,289.72L606.95,289.95L607.56,290.57L609.4,289.26L610.02,292.56L610.63,290.33L611.24,290.61L611.86,290.98L613.7,289.54L614.31,293.02L614.93,289.94L615.54,290.71L616.15,299.91L616.77,290.46L617.38,291L617.99,291.72L618.61,293.86L619.22,290.73L619.84,290.81L620.45,292.28L621.06,299.94L621.68,290.72L622.29,290.4L622.9,293.98L624.13,291.51L624.75,291.65L625.97,291.2L626.59,290.95L627.2,293.54L627.81,292.49L630.88,291.56L631.5,293.83L632.72,292.99L633.34,293.31L634.56,292.76L635.18,294.23L635.79,294.78L636.41,291.77L637.63,293.29L638.25,293.26L638.86,291.82L639.47,292.66L640.09,295.07L640.7,293.88L641.93,292.84L642.54,292.66L643.77,291.79L644.38,295.28L645.61,292.5L646.22,292.84L647.45,292.47L648.07,292.59L648.68,295.72L649.29,294.53L651.13,292.7L651.75,292.27L652.36,293.06L652.98,296.37L654.2,293.1L654.82,293L656.66,292.77L657.27,296.01L658.5,292.98L659.11,293.38L660.95,292.34L661.57,294.54L663.41,292.52L664.02,292.45L665.25,291.73L665.86,293.28L667.09,294.34L667.7,296.95L668.32,297.02L668.93,294.62L669.55,293.43L670.16,294.3L672,297.97L672.61,297L673.84,294.18L674.45,293.87L675.07,293.79L675.68,294.5L676.91,294.47L677.52,294.32L678.14,294.6L678.75,295.77L679.98,293.91L680.59,293.89L682.43,293.6L683.05,295.76L684.27,293.14L684.89,293.86L686.12,291.79L686.73,292.52L688.57,299.99L689.18,293.53L691.02,292.93L691.64,295.41L692.87,293.95L693.48,293.68L695.32,292.91L695.93,295.54L697.16,293.71L697.78,293.96L699.62,291.95L700.23,293.32L702.07,293.95L702.68,293.41L704.53,293.3L705.14,291.92L706.37,293.97L706.98,292.91L707.59,292.48L708.21,293.02L708.82,294.11L709.44,293.55L710.66,293.63L711.28,293.24L712.5,292.91L713.12,295L713.73,293.1L714.35,293.39L714.96,292.71L715.57,292.86L716.19,292.24L717.41,295.08L718.03,293.82L719.87,292.73L720.48,292.29L721.1,292.02L721.71,295.56L722.94,293.72L723.55,293.04L725.39,292.52L726.01,295.18L726.62,294L727.23,297.08L727.85,299.47L728.46,292.88L729.69,292.04L730.3,294.44L733.37,291.12L733.98,291.57L734.6,294.07L735.21,293.85L735.82,293.32L736.44,293.86L737.05,292.29L737.67,291.79L738.28,293.6L738.89,295.9L739.51,295.49L740.12,292.88L741.35,292.84L741.96,292.87L742.58,292.24L743.19,294.03L743.8,292.73L744.42,293.38L745.64,291.37L746.26,293.13L747.48,294.85L748.1,291.83L748.71,292.62L749.33,292.02L750.55,291.12L751.17,292.25L751.78,294.25L752.39,292.35L753.01,291.74L753.62,292.24L755.46,290.89L756.08,293.52L757.3,290.93L757.92,291.27L759.15,288.92L759.76,289.98L760.37,292.42L760.99,291.55L761.6,288.81L762.21,290.8L762.83,289.37L763.44,291.02L764.05,292.79L764.67,291.68L765.28,288.07L765.9,290.76L766.51,290.67L767.12,289.46L768.35,288.66L768.96,292.46L770.81,289.77L771.42,289.73L772.03,288.98L772.65,289.49L773.26,291.72L773.87,289.66L775.1,289.49L775.72,288.5L776.94,288.63L777.56,290.82L778.17,288.66L778.78,289.14L779.4,290.11L780.62,287.97L781.24,288.27L781.85,290.35L782.47,288.14L783.69,289.02L784.31,288.8L784.92,290.24L785.53,289.63L786.15,289.82L786.76,288.69L787.38,288.63L787.99,290.21L789.83,288.4L790.44,290.11L791.67,289.17L792.28,289.87L792.9,290.32L793.51,289.34L794.13,288.54L794.74,290.33L795.35,289.11L795.97,289.5L796.58,290.44L798.42,289.54L799.04,291.03L799.65,289.84L800.26,290.3L800.88,291.64L801.49,290.87L802.72,290.15L803.33,291.37L806.4,292.02L807.01,290.87L808.85,291.89L809.47,292.51L811.31,291.78L811.92,291.7L812.54,291L813.15,291.66L814.38,300L814.99,291.14L815.61,290.96L816.22,292.2L817.45,290.37L818.06,291.03L818.67,290.98L819.29,290.08L821.74,290.13L822.36,291.33L822.97,291.54L823.58,290.28L824.2,290.09L824.81,292.7L825.42,290.31L826.04,290.5L826.65,290.84L827.88,290.05L828.49,289.48L829.11,292.94L829.72,290.05L830.95,290.94L831.56,290.28L832.79,289.71L833.4,293.09L834.02,290.63L834.63,290.94L835.24,291.21L835.86,291.01L836.47,289.87L837.08,289.7L837.7,292.95L838.31,290.56L838.93,290.76L839.54,291.23L840.77,290.43L841.38,291.06L841.99,293.58L842.61,290.56L843.84,292.15L844.45,291L845.06,290.78L845.68,291.59L846.29,293.99L846.9,292.71L849.36,291.78L849.97,298.65L851.2,292.78L851.81,292.33L852.43,292.86L853.04,292.09L853.65,292.1L854.27,291.26L854.88,294.25L855.5,292.53L857.34,293.33L857.95,292.4L858.56,292.98L859.18,294.79L859.79,292.99L860.41,298.32L861.63,293.11L862.25,292.58L863.47,295.24L864.09,293.74L865.93,293.06L866.54,292.21L867.16,292.89L867.77,295.29L869.61,292.65L870.22,293.25L870.84,292.55L871.45,293L872.07,295.53L872.68,294.17L875.75,293.66L876.36,299.95L877.59,293.61L878.2,293.93L879.43,292.88L880.04,293.11L880.66,295.57L881.27,295.12L881.88,293.27L882.5,293.56L883.11,292.29L884.34,292.89L884.95,295.08L886.18,292.78L886.79,293.3L888.64,292.54L889.25,293.57L890.48,294.53L891.09,294.53L892.32,297.15L892.93,294.65L893.55,293.45L894.16,294.71L894.77,295.67L895.39,295.12L896,297.98" style="fill: rgb(245, 225, 164); fill-opacity: 0.3; stroke-width: 0;"/></g></g><g class="errorbars"/><g class="lines"><path class="js-line" d="M0,296.81L0.61,291.83L1.23,293.14L3.07,294.75L3.68,294.31L4.3,293.94L4.91,292.2L5.52,293.83L6.14,293.34L7.98,292.93L8.59,295.64L9.82,293.86L10.43,293.5L12.27,292.54L12.89,295.22L14.12,292.87L14.73,293.12L16.57,292.46L17.18,294.94L19.02,293.04L19.64,292.42L20.87,292.31L21.48,295.15L22.71,293.2L23.32,292.97L25.16,291.26L25.78,293.24L28.23,291.9L28.84,292.29L29.46,292.61L30.07,291.88L30.68,291.01L31.3,292.65L32.53,291.65L33.14,291.22L33.75,291.04L34.37,292.58L34.98,291.46L35.59,291.85L36.21,292.31L37.44,291.52L38.05,291.47L38.66,293.23L39.28,292.9L39.89,292.22L41.73,291.21L42.35,291.94L42.96,294.07L43.57,292.93L45.41,291.17L46.03,291.53L46.64,291.35L47.25,294.01L48.48,292.06L49.1,292.18L50.32,290.96L50.94,291.51L51.55,294.82L52.16,293.25L52.78,291.84L53.39,292.11L54.01,291.68L55.23,291.44L55.85,294.64L57.07,292.52L57.69,292.51L58.92,291.29L59.53,290.95L60.14,293.48L60.76,292.74L62.6,291.83L63.21,290.73L65.05,294.85L65.67,291.39L68.12,291.58L68.73,292.7L69.96,291.46L70.58,291.16L72.42,289.91L73.03,300L74.26,291.68L74.87,291.5L76.71,290.44L77.33,294.38L78.55,291.36L79.17,291.16L80.39,289.48L81.01,290.33L81.62,293.77L82.24,291.38L84.69,288.5L85.3,289.54L85.92,292.4L86.53,289.76L87.76,289.61L88.37,286.79L90.21,290.64L90.83,287.26L91.44,287.13L92.05,289.64L93.28,288.72L93.9,288.75L94.51,291.64L95.12,290.14L95.74,288.18L96.35,289.43L96.96,289.16L97.58,287.76L98.19,287.95L98.81,291.6L100.03,287.82L100.65,288.42L101.87,287.46L102.49,288.22L103.1,291.03L103.72,288.42L104.33,288.05L104.94,288.72L106.17,286.84L106.78,287.66L107.4,290.95L108.01,289.03L109.24,288.04L109.85,287.95L110.47,285.79L111.08,286.17L111.69,289.7L112.31,287.53L112.92,287.85L113.53,289.21L115.38,286.35L115.99,288.88L117.22,288.11L117.83,288.56L118.44,288.17L119.06,288.71L119.67,286.92L120.28,288.38L121.51,286.68L122.13,288.52L123.35,287.75L123.97,288.67L124.58,289.43L125.19,288.98L125.81,288.8L126.42,290.39L128.26,288.63L128.88,289.27L129.49,288.79L130.1,289.33L131.33,290.94L131.95,290.71L133.17,290.56L133.79,290.66L134.4,290.62L135.01,291.76L135.63,290.81L136.24,291.46L138.08,290.65L138.7,290.66L139.92,291.74L140.54,290.8L142.99,290.33L143.61,291.22L144.83,289.6L145.45,289.52L146.06,290.98L146.67,289.68L149.13,289.24L149.74,289.16L150.36,291.94L150.97,289.56L152.2,290.41L152.81,288.87L154.04,289.14L154.65,292.04L155.27,289.01L155.88,289.23L156.49,290.1L157.72,287.94L158.33,289.94L158.95,291.45L159.56,289.41L160.79,289.97L161.4,289.84L162.02,288.21L162.63,289.11L163.24,293.13L163.86,289.63L164.47,290.02L165.08,289.46L166.93,288.98L167.54,292.29L168.15,290.09L168.77,290.52L169.38,291.55L170.61,290.09L171.22,290.59L171.84,293.65L172.45,291.88L173.68,291.07L174.29,290.55L175.52,290.26L176.13,293.11L177.36,291.38L177.97,291.94L179.81,290.8L180.43,293.02L182.88,291.08L183.5,291.03L184.11,291.2L184.72,293.42L185.34,292.38L185.95,294.11L187.79,291.67L188.41,292.52L189.02,294.18L189.63,291.99L190.86,292.33L191.47,291.63L192.09,291.4L192.7,292.43L193.32,294.98L193.93,292.59L194.54,292.85L195.16,292.06L195.77,291.35L196.38,291.86L197,292.34L197.61,295.35L198.84,293.39L199.45,293.09L201.29,292.86L201.91,295.96L203.75,292.75L204.36,291.74L205.59,292.16L206.2,295.71L208.04,292.65L208.66,292.22L209.27,291.78L209.88,292.62L210.5,295.24L211.11,293.99L212.95,291.56L213.57,291.99L214.18,290.7L214.79,293.31L215.41,293.89L216.02,292.32L217.86,292.6L218.48,294.88L219.7,297.68L220.32,295.24L221.55,300L222.16,300L224,300L224.61,292.93L225.23,300L225.84,294.91L227.07,294.92L227.68,294.82L228.3,293.82L228.91,294.47L230.75,293.04L231.36,293.7L231.98,295.76L232.59,294.56L233.21,292.5L233.82,293.27L235.05,300L235.66,300L236.89,294.27L237.5,292.98L239.34,291.74L239.96,292.42L240.57,295.37L241.18,294.29L243.02,292.79L243.64,292.68L244.25,293.41L244.87,295.49L246.71,293.22L247.32,292.59L248.55,291.15L249.16,293.64L249.78,294.27L250.39,293.38L251,293.48L251.62,292.12L252.23,291.72L252.84,292.29L254.07,292.13L254.68,293.78L255.91,293.28L256.53,292.36L257.75,294.11L258.37,292.8L259.59,293.57L260.21,292.33L261.44,292.53L262.05,293.95L263.89,293.66L264.5,292.06L265.12,291.62L265.73,292.44L266.35,295L266.96,293.13L269.41,291.51L270.03,291.38L270.64,294.78L271.25,292.76L271.87,291.99L272.48,292.72L273.71,291.51L274.32,291.86L274.94,295.14L275.55,293.61L276.78,292.8L277.39,292.08L278.62,291.84L279.23,293.59L281.07,292.96L281.69,291.76L282.3,291.22L282.92,293.34L284.14,295.76L284.76,292.81L285.37,292.46L285.98,293L287.21,292.14L287.82,294.06L289.05,292.05L289.67,291.86L291.51,290.97L292.12,293.85L293.35,292.29L293.96,292.27L295.19,290.98L295.8,289.72L297.03,294.34L297.64,292.27L300.1,291.46L300.71,294.44L302.55,291.05L303.17,290.65L303.78,290.4L304.39,291.24L305.01,294.19L305.62,292.26L306.85,290.84L307.46,289.1L309.3,294.31L309.92,289.78L311.15,290.63L311.76,289.54L312.99,287.58L313.6,291.67L314.21,292.72L314.83,289.6L317.28,290.28L317.9,292.45L318.51,289.02L319.12,289.76L319.74,290.81L320.96,288.95L321.58,289.04L322.19,291.27L322.81,287.63L324.65,289.27L325.26,287.39L325.87,287.63L326.49,291.39L327.72,288.01L328.33,289.05L328.94,294.19L329.56,287.12L330.17,287.64L330.78,290.67L332.01,288.17L332.62,289.34L334.47,287.65L335.08,289.54L335.69,287.86L336.31,288.87L337.53,289.34L338.15,287.81L338.76,287.69L339.38,289.85L340.6,288.41L341.22,289.56L342.44,288.4L343.06,289.2L343.67,289.85L344.28,288.04L344.9,288.17L345.51,290.13L346.13,290.05L346.74,288.55L347.97,290.4L348.58,289.2L350.42,290.07L351.04,289.37L351.65,289.3L352.26,290.42L352.88,289.16L353.49,290.28L354.72,291.18L355.33,291.15L357.79,290.82L358.4,292.44L360.85,291.33L361.47,291.46L362.7,291.76L363.31,291.63L365.15,291.72L365.76,289.82L366.99,291.47L367.61,290.06L368.22,289.34L368.83,289.88L369.45,292.07L370.06,290.45L370.67,291.17L371.29,289.2L371.9,289.72L372.52,288.68L373.13,289.2L373.74,291.83L374.36,289.48L374.97,290.08L375.58,291.27L376.2,291.77L376.81,293.45L377.42,292.26L378.04,294.24L379.27,288.87L379.88,289.07L380.49,289.57L381.11,288.59L381.72,288.16L382.33,292.49L382.95,289.39L383.56,289.8L384.18,290.07L385.4,288.43L386.02,288.85L386.63,292.52L387.24,290.31L388.47,290.22L389.08,289.18L390.31,288.5L390.93,292.31L391.54,289.54L392.15,290.74L393.99,291.52L394.61,293.02L395.84,300L396.45,300L397.06,300L397.68,293.02L398.29,293.26L398.9,299.52L399.52,297.32L400.13,291.81L400.75,291.16L401.36,299.94L402.59,291.23L403.2,291.69L403.81,293.43L404.43,292.74L405.04,293.13L405.65,294.74L406.88,292.34L407.5,291.55L408.11,294.74L408.72,293.13L409.34,294.48L409.95,293.7L411.18,294.28L411.79,293.39L412.41,295.56L413.02,293.02L414.25,292.65L414.86,292.15L416.09,292.92L416.7,295.31L417.93,293L418.54,292.72L419.16,299.78L419.77,299.55L420.38,292.28L421,295.48L421.61,293.68L422.22,299.99L422.84,292.95L423.45,292.43L424.07,293.01L424.68,293.29L425.29,295.9L426.52,292.94L427.13,292.72L428.36,291.61L428.98,293.09L430.2,300L430.82,300L431.43,300L432.04,292.88L433.27,292.78L433.88,295.26L435.11,293.27L435.73,292.99L437.57,291.46L438.18,294.15L440.02,292.67L440.64,292.53L441.25,293.41L441.86,292.9L442.48,293.73L443.09,297.25L443.7,297.39L444.32,294.28L444.93,293.71L445.55,294.35L446.77,295.52L447.39,298L448,296.84L448.61,294.02L449.84,294.75L450.45,294.22L451.07,294.48L451.68,293.66L453.52,294.35L454.14,294.07L454.75,293.89L455.36,295.63L456.59,293.22L457.21,293.87L459.05,292.59L459.66,296.06L460.27,294.01L460.89,298.6L462.12,292.98L462.73,292.52L463.34,292.98L463.96,295.61L465.18,293.5L465.8,293.28L467.02,292.44L467.64,293.47L468.25,295.81L468.87,294.4L470.09,293.73L470.71,293.25L471.93,291.77L472.55,293.83L473.78,294.41L474.39,293.93L476.23,292.14L476.84,292.84L477.46,291.84L478.07,293.37L479.91,292.5L480.53,293.22L481.14,294.06L481.75,292.91L482.98,293.14L483.59,292.27L484.21,291.9L484.82,292.6L486.05,299.6L486.66,292.84L487.89,292.33L488.5,290.83L489.12,292.07L489.73,295.1L491.57,292.08L492.19,292.5L492.8,291.44L493.41,292.25L494.03,294.72L494.64,293.22L495.87,293.06L496.48,291.85L497.71,291.7L498.32,294.63L499.55,293.5L500.16,292.88L501.39,291.22L502.01,293.27L503.23,295.94L503.85,293.64L506.3,292.96L506.92,294.48L508.14,292.58L508.76,292.92L509.98,291.53L510.6,292.09L511.21,294.58L511.82,292.13L513.67,290.7L514.28,290.85L514.89,291.24L515.51,293.95L516.73,291.47L517.35,291.96L517.96,290.82L518.58,291.72L519.19,291.3L519.8,294.6L521.03,292.07L521.64,292.16L522.26,293.8L522.87,292.52L523.48,292.59L524.1,294.26L525.33,291.24L525.94,291.29L526.55,289.8L527.17,291.33L528.39,294.23L529.01,289.97L530.85,290.66L531.46,290.14L532.08,289.59L532.69,293.75L533.3,292.34L533.92,298.67L534.53,300L535.15,290.6L536.37,289L536.99,291.93L538.21,288.63L538.83,290.1L540.67,289.82L541.28,291.29L541.9,288.21L542.51,289.67L543.12,290.57L543.74,289.65L544.35,288.57L544.96,289.16L545.58,292.65L546.19,290.38L546.81,288.97L547.42,289.83L549.26,287.37L549.87,290.74L551.1,288.37L551.72,289.5L552.94,287.12L553.56,287.29L554.17,290.9L554.78,288.65L555.4,288.42L556.01,289.16L556.62,288.88L557.24,286.73L557.85,287.4L558.47,289.64L559.08,287.92L559.69,288.37L560.31,289.45L562.15,287.89L562.76,290.08L563.38,288.18L563.99,299.99L565.22,288.37L565.83,287.88L567.06,289.61L567.67,288.04L568.28,286.05L568.9,290.03L569.51,288.33L570.13,288.68L570.74,288.29L571.97,288.81L572.58,288.68L573.19,290.2L573.81,289.13L574.42,287.49L575.04,289.5L575.65,289.86L576.26,288.18L576.88,296.21L577.49,290.22L578.1,289.43L578.72,299.94L579.33,290.11L579.95,293.2L581.79,291.17L582.4,292.04L584.24,290.07L584.85,291.03L585.47,291.02L586.08,292.56L587.31,291.36L587.92,291.15L590.99,291.57L591.61,290.58L592.22,290.52L592.83,291.45L593.45,290L594.06,290.4L594.67,291.39L595.9,290.1L596.52,289.8L597.13,291.03L597.74,288.52L598.97,290.48L599.58,290.46L600.81,290.26L601.42,292.56L602.04,290.01L602.65,290.3L603.27,290.61L605.11,289.66L605.72,292.49L606.33,289.72L606.95,289.95L607.56,290.57L609.4,289.26L610.02,292.56L610.63,290.33L611.24,290.61L611.86,290.98L613.7,289.54L614.31,293.02L614.93,289.94L615.54,290.71L616.15,299.91L616.77,290.46L617.38,291L617.99,291.72L618.61,293.86L619.22,290.73L619.84,290.81L620.45,292.28L621.06,299.94L621.68,290.72L622.29,290.4L622.9,293.98L624.13,291.51L624.75,291.65L625.97,291.2L626.59,290.95L627.2,293.54L627.81,292.49L630.88,291.56L631.5,293.83L632.72,292.99L633.34,293.31L634.56,292.76L635.18,294.23L635.79,294.78L636.41,291.77L637.63,293.29L638.25,293.26L638.86,291.82L639.47,292.66L640.09,295.07L640.7,293.88L641.93,292.84L642.54,292.66L643.77,291.79L644.38,295.28L645.61,292.5L646.22,292.84L647.45,292.47L648.07,292.59L648.68,295.72L649.29,294.53L651.13,292.7L651.75,292.27L652.36,293.06L652.98,296.37L654.2,293.1L654.82,293L656.66,292.77L657.27,296.01L658.5,292.98L659.11,293.38L660.95,292.34L661.57,294.54L663.41,292.52L664.02,292.45L665.25,291.73L665.86,293.28L667.09,294.34L667.7,296.95L668.32,297.02L668.93,294.62L669.55,293.43L670.16,294.3L672,297.97L672.61,297L673.84,294.18L674.45,293.87L675.07,293.79L675.68,294.5L676.91,294.47L677.52,294.32L678.14,294.6L678.75,295.77L679.98,293.91L680.59,293.89L682.43,293.6L683.05,295.76L684.27,293.14L684.89,293.86L686.12,291.79L686.73,292.52L688.57,299.99L689.18,293.53L691.02,292.93L691.64,295.41L692.87,293.95L693.48,293.68L695.32,292.91L695.93,295.54L697.16,293.71L697.78,293.96L699.62,291.95L700.23,293.32L702.07,293.95L702.68,293.41L704.53,293.3L705.14,291.92L706.37,293.97L706.98,292.91L707.59,292.48L708.21,293.02L708.82,294.11L709.44,293.55L710.66,293.63L711.28,293.24L712.5,292.91L713.12,295L713.73,293.1L714.35,293.39L714.96,292.71L715.57,292.86L716.19,292.24L717.41,295.08L718.03,293.82L719.87,292.73L720.48,292.29L721.1,292.02L721.71,295.56L722.94,293.72L723.55,293.04L725.39,292.52L726.01,295.18L726.62,294L727.23,297.08L727.85,299.47L728.46,292.88L729.69,292.04L730.3,294.44L733.37,291.12L733.98,291.57L734.6,294.07L735.21,293.85L735.82,293.32L736.44,293.86L737.05,292.29L737.67,291.79L738.28,293.6L738.89,295.9L739.51,295.49L740.12,292.88L741.35,292.84L741.96,292.87L742.58,292.24L743.19,294.03L743.8,292.73L744.42,293.38L745.64,291.37L746.26,293.13L747.48,294.85L748.1,291.83L748.71,292.62L749.33,292.02L750.55,291.12L751.17,292.25L751.78,294.25L752.39,292.35L753.01,291.74L753.62,292.24L755.46,290.89L756.08,293.52L757.3,290.93L757.92,291.27L759.15,288.92L759.76,289.98L760.37,292.42L760.99,291.55L761.6,288.81L762.21,290.8L762.83,289.37L763.44,291.02L764.05,292.79L764.67,291.68L765.28,288.07L765.9,290.76L766.51,290.67L767.12,289.46L768.35,288.66L768.96,292.46L770.81,289.77L771.42,289.73L772.03,288.98L772.65,289.49L773.26,291.72L773.87,289.66L775.1,289.49L775.72,288.5L776.94,288.63L777.56,290.82L778.17,288.66L778.78,289.14L779.4,290.11L780.62,287.97L781.24,288.27L781.85,290.35L782.47,288.14L783.69,289.02L784.31,288.8L784.92,290.24L785.53,289.63L786.15,289.82L786.76,288.69L787.38,288.63L787.99,290.21L789.83,288.4L790.44,290.11L791.67,289.17L792.28,289.87L792.9,290.32L793.51,289.34L794.13,288.54L794.74,290.33L795.35,289.11L795.97,289.5L796.58,290.44L798.42,289.54L799.04,291.03L799.65,289.84L800.26,290.3L800.88,291.64L801.49,290.87L802.72,290.15L803.33,291.37L806.4,292.02L807.01,290.87L808.85,291.89L809.47,292.51L811.31,291.78L811.92,291.7L812.54,291L813.15,291.66L814.38,300L814.99,291.14L815.61,290.96L816.22,292.2L817.45,290.37L818.06,291.03L818.67,290.98L819.29,290.08L821.74,290.13L822.36,291.33L822.97,291.54L823.58,290.28L824.2,290.09L824.81,292.7L825.42,290.31L826.04,290.5L826.65,290.84L827.88,290.05L828.49,289.48L829.11,292.94L829.72,290.05L830.95,290.94L831.56,290.28L832.79,289.71L833.4,293.09L834.02,290.63L834.63,290.94L835.24,291.21L835.86,291.01L836.47,289.87L837.08,289.7L837.7,292.95L838.31,290.56L838.93,290.76L839.54,291.23L840.77,290.43L841.38,291.06L841.99,293.58L842.61,290.56L843.84,292.15L844.45,291L845.06,290.78L845.68,291.59L846.29,293.99L846.9,292.71L849.36,291.78L849.97,298.65L851.2,292.78L851.81,292.33L852.43,292.86L853.04,292.09L853.65,292.1L854.27,291.26L854.88,294.25L855.5,292.53L857.34,293.33L857.95,292.4L858.56,292.98L859.18,294.79L859.79,292.99L860.41,298.32L861.63,293.11L862.25,292.58L863.47,295.24L864.09,293.74L865.93,293.06L866.54,292.21L867.16,292.89L867.77,295.29L869.61,292.65L870.22,293.25L870.84,292.55L871.45,293L872.07,295.53L872.68,294.17L875.75,293.66L876.36,299.95L877.59,293.61L878.2,293.93L879.43,292.88L880.04,293.11L880.66,295.57L881.27,295.12L881.88,293.27L882.5,293.56L883.11,292.29L884.34,292.89L884.95,295.08L886.18,292.78L886.79,293.3L888.64,292.54L889.25,293.57L890.48,294.53L891.09,294.53L892.32,297.15L892.93,294.65L893.55,293.45L894.16,294.71L894.77,295.67L895.39,295.12L896,297.98" style="vector-effect: none; fill: none; stroke: rgb(249, 224, 118); stroke-opacity: 1; stroke-width: 1.5px; opacity: 1;"/></g><g class="points"/><g class="text"/></g><g class="trace scatter tracef70c4b" style="stroke-miterlimit: 2; opacity: 1;"><g class="fills"/><g class="errorbars"/><g class="lines"/><g class="points"/><g class="text"/></g></g></g></g><path class="xlines-above crisp" d="M52.8,400.6H950" style="fill: none; stroke-width: 1.2px; stroke: rgb(0, 0, 0); stroke-opacity: 1;"/><path class="ylines-above crisp" d="M53.4,100V400" style="fill: none; stroke-width: 1.2px; stroke: rgb(0, 0, 0); stroke-opacity: 1;"/><g class="overlines-above"/><g class="xaxislayer-above"><g class="xtick"><text text-anchor="middle" x="0" y="413.20000000000005" transform="translate(54,0)" style="font-family: 'Open Sans', verdana, arial, sans-serif; font-size: 10px; fill: rgb(0, 0, 0); fill-opacity: 1; white-space: pre; opacity: 1;">Jan 2022</text></g><g class="xtick"><text text-anchor="middle" x="0" y="413.20000000000005" style="font-family: 'Open Sans', verdana, arial, sans-serif; font-size: 10px; fill: rgb(0, 0, 0); fill-opacity: 1; white-space: pre; opacity: 1;" transform="translate(165.07999999999998,0)">Jul 2022</text></g><g class="xtick"><text text-anchor="middle" x="0" y="413.20000000000005" style="font-family: 'Open Sans', verdana, arial, sans-serif; font-size: 10px; fill: rgb(0, 0, 0); fill-opacity: 1; white-space: pre; opacity: 1;" transform="translate(278,0)">Jan 2023</text></g><g class="xtick"><text text-anchor="middle" x="0" y="413.20000000000005" style="font-family: 'Open Sans', verdana, arial, sans-serif; font-size: 10px; fill: rgb(0, 0, 0); fill-opacity: 1; white-space: pre; opacity: 1;" transform="translate(389.08,0)">Jul 2023</text></g><g class="xtick"><text text-anchor="middle" x="0" y="413.20000000000005" style="font-family: 'Open Sans', verdana, arial, sans-serif; font-size: 10px; fill: rgb(0, 0, 0); fill-opacity: 1; white-space: pre; opacity: 1;" transform="translate(502,0)">Jan 2024</text></g><g class="xtick"><text text-anchor="middle" x="0" y="413.20000000000005" style="font-family: 'Open Sans', verdana, arial, sans-serif; font-size: 10px; fill: rgb(0, 0, 0); fill-opacity: 1; white-space: pre; opacity: 1;" transform="translate(613.69,0)">Jul 2024</text></g><g class="xtick"><text text-anchor="middle" x="0" y="413.20000000000005" style="font-family: 'Open Sans', verdana, arial, sans-serif; font-size: 10px; fill: rgb(0, 0, 0); fill-opacity: 1; white-space: pre; opacity: 1;" transform="translate(726.61,0)">Jan 2025</text></g><g class="xtick"><text text-anchor="middle" x="0" y="413.20000000000005" style="font-family: 'Open Sans', verdana, arial, sans-serif; font-size: 10px; fill: rgb(0, 0, 0); fill-opacity: 1; white-space: pre; opacity: 1;" transform="translate(837.69,0)">Jul 2025</text></g></g><g class="yaxislayer-above"><g class="ytick"><text text-anchor="end" x="50.8" y="3.5" transform="translate(0,400)" style="font-family: 'Open Sans', verdana, arial, sans-serif; font-size: 10px; fill: rgb(0, 0, 0); fill-opacity: 1; white-space: pre; opacity: 1;">0</text></g><g class="ytick"><text text-anchor="end" x="50.8" y="3.5" style="font-family: 'Open Sans', verdana, arial, sans-serif; font-size: 10px; fill: rgb(0, 0, 0); fill-opacity: 1; white-space: pre; opacity: 1;" transform="translate(0,335.99)">10k</text></g><g class="ytick"><text text-anchor="end" x="50.8" y="3.5" style="font-family: 'Open Sans', verdana, arial, sans-serif; font-size: 10px; fill: rgb(0, 0, 0); fill-opacity: 1; white-space: pre; opacity: 1;" transform="translate(0,271.99)">20k</text></g><g class="ytick"><text text-anchor="end" x="50.8" y="3.5" style="font-family: 'Open Sans', verdana, arial, sans-serif; font-size: 10px; fill: rgb(0, 0, 0); fill-opacity: 1; white-space: pre; opacity: 1;" transform="translate(0,207.98000000000002)">30k</text></g><g class="ytick"><text text-anchor="end" x="50.8" y="3.5" style="font-family: 'Open Sans', verdana, arial, sans-serif; font-size: 10px; fill: rgb(0, 0, 0); fill-opacity: 1; white-space: pre; opacity: 1;" transform="translate(0,143.98)">40k</text></g></g><g class="overaxes-above"/></g></g><g class="polarlayer"/><g class="smithlayer"/><g class="ternarylayer"/><g class="geolayer"/><g class="funnelarealayer"/><g class="pielayer"/><g class="iciclelayer"/><g class="treemaplayer"/><g class="sunburstlayer"/><g class="glimages"/><defs id="topdefs-47b4a2"><g class="clips"/><clipPath id="legend47b4a2"><rect width="359" height="29" x="0" y="0"/></clipPath></defs><g class="layer-above"><g class="imagelayer"/><g class="shapelayer"><g class="shape-group" data-index="0" clip-path="url(#clip47b4a2x)"><path data-index="0" fill-rule="evenodd" d="M127.03,400L127.03,100" style="opacity: 0.6; stroke: rgb(185, 185, 185); stroke-opacity: 1; fill: rgb(0, 0, 0); fill-opacity: 0; stroke-dasharray: 3px, 3px; stroke-width: 1px;"/></g><g class="shape-group" data-index="1" clip-path="url(#clip47b4a2x)"><path data-index="1" fill-rule="evenodd" d="M274.93,400L274.93,100" style="opacity: 0.6; stroke: rgb(185, 185, 185); stroke-opacity: 1; fill: rgb(0, 0, 0); fill-opacity: 0; stroke-dasharray: 3px, 3px; stroke-width: 1px;"/></g><g class="shape-group" data-index="2" clip-path="url(#clip47b4a2x)"><path data-index="2" fill-rule="evenodd" d="M275.55,400L275.55,100" style="opacity: 0.6; stroke: rgb(185, 185, 185); stroke-opacity: 1; fill: rgb(0, 0, 0); fill-opacity: 0; stroke-dasharray: 3px, 3px; stroke-width: 1px;"/></g><g class="shape-group" data-index="3" clip-path="url(#clip47b4a2x)"><path data-index="3" fill-rule="evenodd" d="M276.15999999999997,400L276.15999999999997,100" style="opacity: 0.6; stroke: rgb(185, 185, 185); stroke-opacity: 1; fill: rgb(0, 0, 0); fill-opacity: 0; stroke-dasharray: 3px, 3px; stroke-width: 1px;"/></g><g class="shape-group" data-index="4" clip-path="url(#clip47b4a2x)"><path data-index="4" fill-rule="evenodd" d="M276.77,400L276.77,100" style="opacity: 0.6; stroke: rgb(185, 185, 185); stroke-opacity: 1; fill: rgb(0, 0, 0); fill-opacity: 0; stroke-dasharray: 3px, 3px; stroke-width: 1px;"/></g><g class="shape-group" data-index="5" clip-path="url(#clip47b4a2x)"><path data-index="5" fill-rule="evenodd" d="M277.39,400L277.39,100" style="opacity: 0.6; stroke: rgb(185, 185, 185); stroke-opacity: 1; fill: rgb(0, 0, 0); fill-opacity: 0; stroke-dasharray: 3px, 3px; stroke-width: 1px;"/></g><g class="shape-group" data-index="6" clip-path="url(#clip47b4a2x)"><path data-index="6" fill-rule="evenodd" d="M278,400L278,100" style="opacity: 0.6; stroke: rgb(185, 185, 185); stroke-opacity: 1; fill: rgb(0, 0, 0); fill-opacity: 0; stroke-dasharray: 3px, 3px; stroke-width: 1px;"/></g><g class="shape-group" data-index="7" clip-path="url(#clip47b4a2x)"><path data-index="7" fill-rule="evenodd" d="M279.23,400L279.23,100" style="opacity: 0.6; stroke: rgb(185, 185, 185); stroke-opacity: 1; fill: rgb(0, 0, 0); fill-opacity: 0; stroke-dasharray: 3px, 3px; stroke-width: 1px;"/></g><g class="shape-group" data-index="8" clip-path="url(#clip47b4a2x)"><path data-index="8" fill-rule="evenodd" d="M288.43,400L288.43,100" style="opacity: 0.6; stroke: rgb(185, 185, 185); stroke-opacity: 1; fill: rgb(0, 0, 0); fill-opacity: 0; stroke-dasharray: 3px, 3px; stroke-width: 1px;"/></g><g class="shape-group" data-index="9" clip-path="url(#clip47b4a2x)"><path data-index="9" fill-rule="evenodd" d="M289.05,400L289.05,100" style="opacity: 0.6; stroke: rgb(185, 185, 185); stroke-opacity: 1; fill: rgb(0, 0, 0); fill-opacity: 0; stroke-dasharray: 3px, 3px; stroke-width: 1px;"/></g><g class="shape-group" data-index="10" clip-path="url(#clip47b4a2x)"><path data-index="10" fill-rule="evenodd" d="M289.65999999999997,400L289.65999999999997,100" style="opacity: 0.6; stroke: rgb(185, 185, 185); stroke-opacity: 1; fill: rgb(0, 0, 0); fill-opacity: 0; stroke-dasharray: 3px, 3px; stroke-width: 1px;"/></g><g class="shape-group" data-index="11" clip-path="url(#clip47b4a2x)"><path data-index="11" fill-rule="evenodd" d="M449.22,400L449.22,100" style="opacity: 0.6; stroke: rgb(185, 185, 185); stroke-opacity: 1; fill: rgb(0, 0, 0); fill-opacity: 0; stroke-dasharray: 3px, 3px; stroke-width: 1px;"/></g><g class="shape-group" data-index="12" clip-path="url(#clip47b4a2x)"><path data-index="12" fill-rule="evenodd" d="M449.84,400L449.84,100" style="opacity: 0.6; stroke: rgb(185, 185, 185); stroke-opacity: 1; fill: rgb(0, 0, 0); fill-opacity: 0; stroke-dasharray: 3px, 3px; stroke-width: 1px;"/></g><g class="shape-group" data-index="13" clip-path="url(#clip47b4a2x)"><path data-index="13" fill-rule="evenodd" d="M450.45,400L450.45,100" style="opacity: 0.6; stroke: rgb(185, 185, 185); stroke-opacity: 1; fill: rgb(0, 0, 0); fill-opacity: 0; stroke-dasharray: 3px, 3px; stroke-width: 1px;"/></g><g class="shape-group" data-index="14" clip-path="url(#clip47b4a2x)"><path data-index="14" fill-rule="evenodd" d="M451.06,400L451.06,100" style="opacity: 0.6; stroke: rgb(185, 185, 185); stroke-opacity: 1; fill: rgb(0, 0, 0); fill-opacity: 0; stroke-dasharray: 3px, 3px; stroke-width: 1px;"/></g><g class="shape-group" data-index="15" clip-path="url(#clip47b4a2x)"><path data-index="15" fill-rule="evenodd" d="M452.9,400L452.9,100" style="opacity: 0.6; stroke: rgb(185, 185, 185); stroke-opacity: 1; fill: rgb(0, 0, 0); fill-opacity: 0; stroke-dasharray: 3px, 3px; stroke-width: 1px;"/></g><g class="shape-group" data-index="16" clip-path="url(#clip47b4a2x)"><path data-index="16" fill-rule="evenodd" d="M455.36,400L455.36,100" style="opacity: 0.6; stroke: rgb(185, 185, 185); stroke-opacity: 1; fill: rgb(0, 0, 0); fill-opacity: 0; stroke-dasharray: 3px, 3px; stroke-width: 1px;"/></g><g class="shape-group" data-index="17" clip-path="url(#clip47b4a2x)"><path data-index="17" fill-rule="evenodd" d="M473.16,400L473.16,100" style="opacity: 0.6; stroke: rgb(185, 185, 185); stroke-opacity: 1; fill: rgb(0, 0, 0); fill-opacity: 0; stroke-dasharray: 3px, 3px; stroke-width: 1px;"/></g><g class="shape-group" data-index="18" clip-path="url(#clip47b4a2x)"><path data-index="18" fill-rule="evenodd" d="M473.77,400L473.77,100" style="opacity: 0.6; stroke: rgb(185, 185, 185); stroke-opacity: 1; fill: rgb(0, 0, 0); fill-opacity: 0; stroke-dasharray: 3px, 3px; stroke-width: 1px;"/></g><g class="shape-group" data-index="19" clip-path="url(#clip47b4a2x)"><path data-index="19" fill-rule="evenodd" d="M476.22,400L476.22,100" style="opacity: 0.6; stroke: rgb(185, 185, 185); stroke-opacity: 1; fill: rgb(0, 0, 0); fill-opacity: 0; stroke-dasharray: 3px, 3px; stroke-width: 1px;"/></g><g class="shape-group" data-index="20" clip-path="url(#clip47b4a2x)"><path data-index="20" fill-rule="evenodd" d="M483.59,400L483.59,100" style="opacity: 0.6; stroke: rgb(185, 185, 185); stroke-opacity: 1; fill: rgb(0, 0, 0); fill-opacity: 0; stroke-dasharray: 3px, 3px; stroke-width: 1px;"/></g><g class="shape-group" data-index="21" clip-path="url(#clip47b4a2x)"><path data-index="21" fill-rule="evenodd" d="M484.2,400L484.2,100" style="opacity: 0.6; stroke: rgb(185, 185, 185); stroke-opacity: 1; fill: rgb(0, 0, 0); fill-opacity: 0; stroke-dasharray: 3px, 3px; stroke-width: 1px;"/></g><g class="shape-group" data-index="22" clip-path="url(#clip47b4a2x)"><path data-index="22" fill-rule="evenodd" d="M484.82,400L484.82,100" style="opacity: 0.6; stroke: rgb(185, 185, 185); stroke-opacity: 1; fill: rgb(0, 0, 0); fill-opacity: 0; stroke-dasharray: 3px, 3px; stroke-width: 1px;"/></g><g class="shape-group" data-index="23" clip-path="url(#clip47b4a2x)"><path data-index="23" fill-rule="evenodd" d="M485.43,400L485.43,100" style="opacity: 0.6; stroke: rgb(185, 185, 185); stroke-opacity: 1; fill: rgb(0, 0, 0); fill-opacity: 0; stroke-dasharray: 3px, 3px; stroke-width: 1px;"/></g><g class="shape-group" data-index="24" clip-path="url(#clip47b4a2x)"><path data-index="24" fill-rule="evenodd" d="M514.89,400L514.89,100" style="opacity: 0.6; stroke: rgb(185, 185, 185); stroke-opacity: 1; fill: rgb(0, 0, 0); fill-opacity: 0; stroke-dasharray: 3px, 3px; stroke-width: 1px;"/></g><g class="shape-group" data-index="25" clip-path="url(#clip47b4a2x)"><path data-index="25" fill-rule="evenodd" d="M540.05,400L540.05,100" style="opacity: 0.6; stroke: rgb(185, 185, 185); stroke-opacity: 1; fill: rgb(0, 0, 0); fill-opacity: 0; stroke-dasharray: 3px, 3px; stroke-width: 1px;"/></g><g class="shape-group" data-index="26" clip-path="url(#clip47b4a2x)"><path data-index="26" fill-rule="evenodd" d="M587.92,400L587.92,100" style="opacity: 0.6; stroke: rgb(185, 185, 185); stroke-opacity: 1; fill: rgb(0, 0, 0); fill-opacity: 0; stroke-dasharray: 3px, 3px; stroke-width: 1px;"/></g><g class="shape-group" data-index="27" clip-path="url(#clip47b4a2x)"><path data-index="27" fill-rule="evenodd" d="M588.53,400L588.53,100" style="opacity: 0.6; stroke: rgb(185, 185, 185); stroke-opacity: 1; fill: rgb(0, 0, 0); fill-opacity: 0; stroke-dasharray: 3px, 3px; stroke-width: 1px;"/></g><g class="shape-group" data-index="28" clip-path="url(#clip47b4a2x)"><path data-index="28" fill-rule="evenodd" d="M617.99,400L617.99,100" style="opacity: 0.6; stroke: rgb(185, 185, 185); stroke-opacity: 1; fill: rgb(0, 0, 0); fill-opacity: 0; stroke-dasharray: 3px, 3px; stroke-width: 1px;"/></g><g class="shape-group" data-index="29" clip-path="url(#clip47b4a2x)"><path data-index="29" fill-rule="evenodd" d="M632.72,400L632.72,100" style="opacity: 0.6; stroke: rgb(185, 185, 185); stroke-opacity: 1; fill: rgb(0, 0, 0); fill-opacity: 0; stroke-dasharray: 3px, 3px; stroke-width: 1px;"/></g><g class="shape-group" data-index="30" clip-path="url(#clip47b4a2x)"><path data-index="30" fill-rule="evenodd" d="M670.15,400L670.15,100" style="opacity: 0.6; stroke: rgb(185, 185, 185); stroke-opacity: 1; fill: rgb(0, 0, 0); fill-opacity: 0; stroke-dasharray: 3px, 3px; stroke-width: 1px;"/></g><g class="shape-group" data-index="31" clip-path="url(#clip47b4a2x)"><path data-index="31" fill-rule="evenodd" d="M675.06,400L675.06,100" style="opacity: 0.6; stroke: rgb(185, 185, 185); stroke-opacity: 1; fill: rgb(0, 0, 0); fill-opacity: 0; stroke-dasharray: 3px, 3px; stroke-width: 1px;"/></g><g class="shape-group" data-index="32" clip-path="url(#clip47b4a2x)"><path data-index="32" fill-rule="evenodd" d="M741.96,400L741.96,100" style="opacity: 0.6; stroke: rgb(185, 185, 185); stroke-opacity: 1; fill: rgb(0, 0, 0); fill-opacity: 0; stroke-dasharray: 3px, 3px; stroke-width: 1px;"/></g><g class="shape-group" data-index="33" clip-path="url(#clip47b4a2x)"><path data-index="33" fill-rule="evenodd" d="M742.57,400L742.57,100" style="opacity: 0.6; stroke: rgb(185, 185, 185); stroke-opacity: 1; fill: rgb(0, 0, 0); fill-opacity: 0; stroke-dasharray: 3px, 3px; stroke-width: 1px;"/></g><g class="shape-group" data-index="34" clip-path="url(#clip47b4a2x)"><path data-index="34" fill-rule="evenodd" d="M781.85,400L781.85,100" style="opacity: 0.6; stroke: rgb(185, 185, 185); stroke-opacity: 1; fill: rgb(0, 0, 0); fill-opacity: 0; stroke-dasharray: 3px, 3px; stroke-width: 1px;"/></g><g class="shape-group" data-index="35" clip-path="url(#clip47b4a2x)"><path data-index="35" fill-rule="evenodd" d="M867.76,400L867.76,100" style="opacity: 0.6; stroke: rgb(185, 185, 185); stroke-opacity: 1; fill: rgb(0, 0, 0); fill-opacity: 0; stroke-dasharray: 3px, 3px; stroke-width: 1px;"/></g><g class="shape-group" data-index="36" clip-path="url(#clip47b4a2x)"><path data-index="36" fill-rule="evenodd" d="M868.38,400L868.38,100" style="opacity: 0.6; stroke: rgb(185, 185, 185); stroke-opacity: 1; fill: rgb(0, 0, 0); fill-opacity: 0; stroke-dasharray: 3px, 3px; stroke-width: 1px;"/></g><g class="shape-group" data-index="37" clip-path="url(#clip47b4a2x)"><path data-index="37" fill-rule="evenodd" d="M903.97,400L903.97,100" style="opacity: 0.6; stroke: rgb(185, 185, 185); stroke-opacity: 1; fill: rgb(0, 0, 0); fill-opacity: 0; stroke-dasharray: 3px, 3px; stroke-width: 1px;"/></g><g class="shape-group" data-index="38" clip-path="url(#clip47b4a2x)"><path data-index="38" fill-rule="evenodd" d="M914.41,400L914.41,100" style="opacity: 0.6; stroke: rgb(185, 185, 185); stroke-opacity: 1; fill: rgb(0, 0, 0); fill-opacity: 0; stroke-dasharray: 3px, 3px; stroke-width: 1px;"/></g><g class="shape-group" data-index="39" clip-path="url(#clip47b4a2x)"><path data-index="39" fill-rule="evenodd" d="M930.36,400L930.36,100" style="opacity: 0.6; stroke: rgb(185, 185, 185); stroke-opacity: 1; fill: rgb(0, 0, 0); fill-opacity: 0; stroke-dasharray: 3px, 3px; stroke-width: 1px;"/></g></g></g><g class="infolayer"><g class="legend" pointer-events="all" transform="translate(322.5,436.00000000000006)"><rect class="bg" shape-rendering="crispEdges" style="stroke: rgb(68, 68, 68); stroke-opacity: 1; fill: rgb(255, 255, 255); fill-opacity: 1; stroke-width: 0px;" width="359" height="29" x="0" y="0"/><g class="scrollbox" transform="" clip-path="url(#legend47b4a2)"><g class="groups"><g class="traces" transform="translate(0,14.5)" style="opacity: 1;"><text class="legendtext" text-anchor="start" x="40" y="3.9" style="font-family: 'Open Sans', verdana, arial, sans-serif; font-size: 10px; fill: rgb(42, 63, 95); fill-opacity: 1; white-space: pre;">Total Aviation Traffic</text><g class="layers"><g class="legendfill"><path class="js-fill" d="M5,-2h30v6h-30z" style="stroke-width: 0; fill: rgb(128, 128, 128); fill-opacity: 0.1;"/></g><g class="legendlines"><path class="js-line" d="M5,-2h30" style="fill: none; stroke: rgb(128, 128, 128); stroke-opacity: 1; stroke-width: 1.5px;"/></g><g class="legendsymbols"><g class="legendpoints"/></g></g><rect class="legendtoggle" x="0" y="-9.5" width="131.8125" height="19" style="fill: rgb(0, 0, 0); fill-opacity: 0;"/></g><g class="traces" transform="translate(134.3125,14.5)" style="opacity: 1;"><text class="legendtext" text-anchor="start" x="40" y="3.9" style="font-family: 'Open Sans', verdana, arial, sans-serif; font-size: 10px; fill: rgb(42, 63, 95); fill-opacity: 1; white-space: pre;">LPA* Traffic</text><g class="layers"><g class="legendfill"><path class="js-fill" d="M5,-2h30v6h-30z" style="stroke-width: 0; fill: rgb(245, 225, 164); fill-opacity: 0.3;"/></g><g class="legendlines"><path class="js-line" d="M5,-2h30" style="fill: none; stroke: rgb(249, 224, 118); stroke-opacity: 1; stroke-width: 1.5px;"/></g><g class="legendsymbols"><g class="legendpoints"/></g></g><rect class="legendtoggle" x="0" y="-9.5" width="94.5625" height="19" style="fill: rgb(0, 0, 0); fill-opacity: 0;"/></g><g class="traces" transform="translate(231.375,14.5)" style="opacity: 1;"><text class="legendtext" text-anchor="start" x="40" y="3.9" style="font-family: 'Open Sans', verdana, arial, sans-serif; font-size: 10px; fill: rgb(42, 63, 95); fill-opacity: 1; white-space: pre;">Source Data Gaps</text><g class="layers" style="opacity: 1;"><g class="legendfill"/><g class="legendlines"><path class="js-line" d="M5,0h30" style="fill: none; stroke: rgb(185, 185, 185); stroke-opacity: 1; stroke-dasharray: 3px, 3px; stroke-width: 1px;"/></g><g class="legendsymbols"><g class="legendpoints"/></g></g><rect class="legendtoggle" x="0" y="-9.5" width="124.765625" height="19" style="fill: rgb(0, 0, 0); fill-opacity: 0;"/></g></g></g><rect class="scrollbar" rx="20" ry="3" width="0" height="0" style="fill: rgb(128, 139, 164); fill-opacity: 1;" x="0" y="0"/></g><g class="g-gtitle"><text class="gtitle" x="500" y="50" text-anchor="middle" dy="0em" style="opacity: 1; font-family: 'Open Sans', verdana, arial, sans-serif; font-size: 16px; fill: rgb(0, 0, 0); fill-opacity: 1; white-space: pre;"><tspan class="line" dy="0em" x="500" y="50"><tspan style="font-weight:bold">Total Daily Aviation vs LPA* Traffic (2022–2025, Eurocontrol Area)</tspan></tspan><tspan class="line" dy="1.3em" x="500" y="50">​<tspan style="font-size:70%" dy="-0.6em">Source: Author's own construction based on Eurocontrol OPDI data</tspan><tspan dy="0.42em">​</tspan></tspan></text></g><g class="g-xtitle"><text class="xtitle" x="502" y="437.30312499999997" text-anchor="middle" style="opacity: 1; font-family: 'Open Sans', verdana, arial, sans-serif; font-size: 11px; fill: rgb(42, 63, 95); fill-opacity: 1; white-space: pre;"><tspan style="font-weight:bold">TIMELINE</tspan></text></g><g class="g-ytitle"><text class="ytitle" transform="rotate(-90,16.421875,250)" x="16.421875" y="250" text-anchor="middle" style="opacity: 1; font-family: 'Open Sans', verdana, arial, sans-serif; font-size: 11px; fill: rgb(42, 63, 95); fill-opacity: 1; white-space: pre;"><tspan style="font-weight:bold">NUMBER OF FLIGHTS</tspan></text></g><g class="annotation" data-index="0" style="opacity: 1;"><g class="annotation-text-g" transform="rotate(0,887,453)"><g class="cursor-pointer" transform="translate(824,446)"><rect class="bg" x="0.5" y="0.5" width="125" height="13" style="stroke-width: 1px; stroke: rgb(0, 0, 0); stroke-opacity: 0; fill: rgb(0, 0, 0); fill-opacity: 0;"/><text class="annotation-text" text-anchor="middle" x="62.875" y="10" style="font-family: 'Open Sans', verdana, arial, sans-serif; font-size: 9px; fill: rgb(128, 128, 128); fill-opacity: 1; white-space: pre;">LPA* – Luxury Private Aviation</text></g></g></g></g></svg>